<svg width="460" height="45" viewBox="0 0 460 45" fill="none" xmlns="http://www.w3.org/2000/svg">
<path d="M38.28 31V10H51.75V13.75H42.39V18.79H50.19V22.54H42.39V31H38.28ZM56.8184 23.11C56.8184 21.49 57.1284 20.15 57.7484 19.09C58.3884 18.03 59.1984 17.24 60.1784 16.72C61.1784 16.2 62.2184 15.94 63.2984 15.94V19.78C62.3784 19.78 61.5084 19.89 60.6884 20.11C59.8884 20.33 59.2384 20.69 58.7384 21.19C58.2384 21.69 57.9884 22.33 57.9884 23.11H56.8184ZM54.0284 31V16H57.9884V31H54.0284ZM72.1755 31.36C70.6955 31.36 69.3855 31.03 68.2455 30.37C67.1055 29.69 66.2055 28.76 65.5455 27.58C64.9055 26.4 64.5855 25.04 64.5855 23.5C64.5855 21.96 64.9155 20.6 65.5755 19.42C66.2555 18.24 67.1755 17.32 68.3355 16.66C69.5155 15.98 70.8655 15.64 72.3855 15.64C73.7055 15.64 74.9155 15.99 76.0155 16.69C77.1355 17.37 78.0255 18.38 78.6855 19.72C79.3655 21.04 79.7055 22.65 79.7055 24.55H68.3355L68.6955 24.19C68.6955 24.93 68.8755 25.58 69.2355 26.14C69.6155 26.68 70.0955 27.1 70.6755 27.4C71.2755 27.68 71.9155 27.82 72.5955 27.82C73.4155 27.82 74.0855 27.65 74.6055 27.31C75.1255 26.95 75.5255 26.49 75.8055 25.93L79.3455 27.31C78.9255 28.15 78.3755 28.88 77.6955 29.5C77.0355 30.1 76.2455 30.56 75.3255 30.88C74.4055 31.2 73.3555 31.36 72.1755 31.36ZM68.9055 21.97L68.5455 21.61H75.7755L75.4455 21.97C75.4455 21.25 75.2755 20.68 74.9355 20.26C74.5955 19.82 74.1755 19.5 73.6755 19.3C73.1955 19.1 72.7255 19 72.2655 19C71.8055 19 71.3155 19.1 70.7955 19.3C70.2755 19.5 69.8255 19.82 69.4455 20.26C69.0855 20.68 68.9055 21.25 68.9055 21.97ZM92.5069 37V18.79L92.7169 16H96.4669V37H92.5069ZM87.9769 31.36C86.5969 31.36 85.3969 31.04 84.3769 30.4C83.3769 29.76 82.5969 28.85 82.0369 27.67C81.4769 26.49 81.1969 25.1 81.1969 23.5C81.1969 21.88 81.4769 20.49 82.0369 19.33C82.5969 18.15 83.3769 17.24 84.3769 16.6C85.3969 15.96 86.5969 15.64 87.9769 15.64C89.2369 15.64 90.2969 15.96 91.1569 16.6C92.0369 17.24 92.7069 18.15 93.1669 19.33C93.6269 20.49 93.8569 21.88 93.8569 23.5C93.8569 25.1 93.6269 26.49 93.1669 27.67C92.7069 28.85 92.0369 29.76 91.1569 30.4C90.2969 31.04 89.2369 31.36 87.9769 31.36ZM88.9969 27.73C89.6769 27.73 90.2769 27.55 90.7969 27.19C91.3369 26.83 91.7569 26.33 92.0569 25.69C92.3569 25.05 92.5069 24.32 92.5069 23.5C92.5069 22.68 92.3569 21.95 92.0569 21.31C91.7569 20.67 91.3369 20.18 90.7969 19.84C90.2769 19.48 89.6669 19.3 88.9669 19.3C88.2469 19.3 87.6169 19.48 87.0769 19.84C86.5369 20.18 86.1069 20.67 85.7869 21.31C85.4669 21.95 85.3069 22.68 85.3069 23.5C85.3069 24.32 85.4669 25.05 85.7869 25.69C86.1069 26.33 86.5369 26.83 87.0769 27.19C87.6369 27.55 88.2769 27.73 88.9969 27.73ZM109.661 31L109.421 28.24V16H113.381V31H109.661ZM99.4908 23.68V16H103.451V23.68H99.4908ZM103.451 23.68C103.451 24.68 103.561 25.47 103.781 26.05C104.021 26.61 104.351 27.02 104.771 27.28C105.211 27.52 105.701 27.64 106.241 27.64C107.281 27.66 108.071 27.35 108.611 26.71C109.151 26.05 109.421 25.1 109.421 23.86H110.771C110.771 25.46 110.531 26.82 110.051 27.94C109.571 29.04 108.911 29.89 108.071 30.49C107.231 31.07 106.241 31.36 105.101 31.36C103.901 31.36 102.881 31.12 102.041 30.64C101.201 30.16 100.561 29.42 100.121 28.42C99.7008 27.4 99.4908 26.09 99.4908 24.49V23.68H103.451ZM123.592 31.36C122.112 31.36 120.802 31.03 119.662 30.37C118.522 29.69 117.622 28.76 116.962 27.58C116.322 26.4 116.002 25.04 116.002 23.5C116.002 21.96 116.332 20.6 116.992 19.42C117.672 18.24 118.592 17.32 119.752 16.66C120.932 15.98 122.282 15.64 123.802 15.64C125.122 15.64 126.332 15.99 127.432 16.69C128.552 17.37 129.442 18.38 130.102 19.72C130.782 21.04 131.122 22.65 131.122 24.55H119.752L120.112 24.19C120.112 24.93 120.292 25.58 120.652 26.14C121.032 26.68 121.512 27.1 122.092 27.4C122.692 27.68 123.332 27.82 124.012 27.82C124.832 27.82 125.502 27.65 126.022 27.31C126.542 26.95 126.942 26.49 127.222 25.93L130.762 27.31C130.342 28.15 129.792 28.88 129.112 29.5C128.452 30.1 127.662 30.56 126.742 30.88C125.822 31.2 124.772 31.36 123.592 31.36ZM120.322 21.97L119.962 21.61H127.192L126.862 21.97C126.862 21.25 126.692 20.68 126.352 20.26C126.012 19.82 125.592 19.5 125.092 19.3C124.612 19.1 124.142 19 123.682 19C123.222 19 122.732 19.1 122.212 19.3C121.692 19.5 121.242 19.82 120.862 20.26C120.502 20.68 120.322 21.25 120.322 21.97ZM133.423 31V16H137.143L137.383 18.76V31H133.423ZM143.353 31V23.32H147.313V31H143.353ZM143.353 23.32C143.353 22.3 143.233 21.51 142.993 20.95C142.773 20.39 142.453 19.99 142.033 19.75C141.613 19.49 141.123 19.36 140.563 19.36C139.543 19.34 138.753 19.65 138.193 20.29C137.653 20.93 137.383 21.88 137.383 23.14H136.063C136.063 21.54 136.293 20.19 136.753 19.09C137.233 17.97 137.893 17.12 138.733 16.54C139.593 15.94 140.593 15.64 141.733 15.64C142.913 15.64 143.923 15.88 144.763 16.36C145.603 16.84 146.243 17.59 146.683 18.61C147.123 19.61 147.333 20.91 147.313 22.51V23.32H143.353ZM156.654 31.36C154.994 31.36 153.734 30.95 152.874 30.13C152.034 29.31 151.614 28.14 151.614 26.62V11.32H155.574V25.75C155.574 26.39 155.714 26.88 155.994 27.22C156.274 27.54 156.684 27.7 157.224 27.7C157.424 27.7 157.644 27.66 157.884 27.58C158.124 27.48 158.374 27.34 158.634 27.16L160.014 30.13C159.534 30.49 158.994 30.78 158.394 31C157.814 31.24 157.234 31.36 156.654 31.36ZM149.184 19.36V16H159.324V19.36H149.184ZM162.544 31V10H166.504V31H162.544ZM172.927 37.36C172.387 37.36 171.787 37.25 171.127 37.03C170.487 36.83 169.917 36.59 169.417 36.31L170.887 33.1C171.227 33.28 171.537 33.42 171.817 33.52C172.117 33.64 172.377 33.7 172.597 33.7C173.017 33.7 173.387 33.58 173.707 33.34C174.027 33.12 174.287 32.79 174.487 32.35L176.257 28.18L181.027 16H185.377L178.567 32.29C178.147 33.29 177.707 34.17 177.247 34.93C176.787 35.71 176.217 36.31 175.537 36.73C174.877 37.15 174.007 37.36 172.927 37.36ZM175.207 31L168.337 16H172.687L177.697 28.18L178.987 31H175.207ZM209.48 31L201.44 10H205.55L213.83 31H209.48ZM192.89 31L201.17 10H205.28L197.24 31H192.89ZM196.79 26.38V22.75H209.96V26.38H196.79ZM221.386 31.36C220.426 31.36 219.526 31.22 218.686 30.94C217.846 30.64 217.106 30.22 216.466 29.68C215.826 29.12 215.326 28.44 214.966 27.64L218.356 26.08C218.656 26.56 219.066 26.98 219.586 27.34C220.106 27.68 220.706 27.85 221.386 27.85C222.046 27.85 222.556 27.76 222.916 27.58C223.276 27.38 223.456 27.1 223.456 26.74C223.456 26.38 223.306 26.12 223.006 25.96C222.726 25.78 222.336 25.63 221.836 25.51L220.456 25.15C219.016 24.77 217.876 24.17 217.036 23.35C216.216 22.51 215.806 21.55 215.806 20.47C215.806 18.93 216.296 17.74 217.276 16.9C218.276 16.06 219.686 15.64 221.506 15.64C222.446 15.64 223.316 15.78 224.116 16.06C224.936 16.34 225.636 16.73 226.216 17.23C226.796 17.73 227.196 18.31 227.416 18.97L224.146 20.47C224.006 20.07 223.666 19.75 223.126 19.51C222.586 19.25 222.046 19.12 221.506 19.12C220.966 19.12 220.546 19.24 220.246 19.48C219.966 19.7 219.826 20.01 219.826 20.41C219.826 20.67 219.966 20.89 220.246 21.07C220.526 21.23 220.926 21.37 221.446 21.49L223.396 21.97C224.376 22.21 225.156 22.6 225.736 23.14C226.336 23.66 226.766 24.25 227.026 24.91C227.306 25.55 227.446 26.18 227.446 26.8C227.446 27.7 227.176 28.5 226.636 29.2C226.116 29.88 225.396 30.41 224.476 30.79C223.576 31.17 222.546 31.36 221.386 31.36ZM233.531 27.19L231.161 24.46L238.841 16H243.551L233.531 27.19ZM229.751 31V10H233.711V31H229.751ZM239.351 31L234.371 23.74L236.951 21.01L244.001 31H239.351ZM251.883 31.36C250.403 31.36 249.093 31.03 247.953 30.37C246.813 29.69 245.913 28.76 245.253 27.58C244.613 26.4 244.293 25.04 244.293 23.5C244.293 21.96 244.623 20.6 245.283 19.42C245.963 18.24 246.883 17.32 248.043 16.66C249.223 15.98 250.573 15.64 252.093 15.64C253.413 15.64 254.623 15.99 255.723 16.69C256.843 17.37 257.733 18.38 258.393 19.72C259.073 21.04 259.413 22.65 259.413 24.55H248.043L248.403 24.19C248.403 24.93 248.583 25.58 248.943 26.14C249.323 26.68 249.803 27.1 250.383 27.4C250.983 27.68 251.623 27.82 252.303 27.82C253.123 27.82 253.793 27.65 254.313 27.31C254.833 26.95 255.233 26.49 255.513 25.93L259.053 27.31C258.633 28.15 258.083 28.88 257.403 29.5C256.743 30.1 255.953 30.56 255.033 30.88C254.113 31.2 253.063 31.36 251.883 31.36ZM248.613 21.97L248.253 21.61H255.483L255.153 21.97C255.153 21.25 254.983 20.68 254.643 20.26C254.303 19.82 253.883 19.5 253.383 19.3C252.903 19.1 252.433 19 251.973 19C251.513 19 251.023 19.1 250.503 19.3C249.983 19.5 249.533 19.82 249.153 20.26C248.793 20.68 248.613 21.25 248.613 21.97ZM272.394 31L272.184 28.21V10H276.144V31H272.394ZM267.684 31.36C266.304 31.36 265.104 31.04 264.084 30.4C263.084 29.76 262.304 28.85 261.744 27.67C261.184 26.49 260.904 25.1 260.904 23.5C260.904 21.88 261.184 20.49 261.744 19.33C262.304 18.15 263.084 17.24 264.084 16.6C265.104 15.96 266.304 15.64 267.684 15.64C268.944 15.64 270.004 15.96 270.864 16.6C271.744 17.24 272.414 18.15 272.874 19.33C273.334 20.49 273.564 21.88 273.564 23.5C273.564 25.1 273.334 26.49 272.874 27.67C272.414 28.85 271.744 29.76 270.864 30.4C270.004 31.04 268.944 31.36 267.684 31.36ZM268.704 27.73C269.384 27.73 269.984 27.55 270.504 27.19C271.044 26.83 271.464 26.33 271.764 25.69C272.064 25.05 272.214 24.32 272.214 23.5C272.214 22.68 272.064 21.95 271.764 21.31C271.464 20.67 271.044 20.18 270.504 19.84C269.984 19.48 269.374 19.3 268.674 19.3C267.954 19.3 267.324 19.48 266.784 19.84C266.244 20.18 265.814 20.67 265.494 21.31C265.174 21.95 265.014 22.68 265.014 23.5C265.014 24.32 265.174 25.05 265.494 25.69C265.814 26.33 266.244 26.83 266.784 27.19C267.344 27.55 267.984 27.73 268.704 27.73ZM296.874 31.36C294.754 31.36 292.874 30.9 291.234 29.98C289.614 29.04 288.344 27.76 287.424 26.14C286.504 24.5 286.044 22.62 286.044 20.5C286.044 18.92 286.304 17.47 286.824 16.15C287.364 14.81 288.104 13.66 289.044 12.7C290.004 11.72 291.134 10.97 292.434 10.45C293.754 9.91 295.204 9.64 296.784 9.64C298.904 9.64 300.764 10.11 302.364 11.05C303.984 11.97 305.254 13.25 306.174 14.89C307.094 16.51 307.554 18.39 307.554 20.53C307.554 22.63 307.094 24.5 306.174 26.14C305.274 27.76 304.014 29.04 302.394 29.98C300.794 30.9 298.954 31.36 296.874 31.36ZM304.734 32.26L296.994 24.4L299.634 21.91L307.314 29.71L304.734 32.26ZM296.874 27.61C298.154 27.61 299.274 27.31 300.234 26.71C301.214 26.09 301.974 25.25 302.514 24.19C303.074 23.13 303.354 21.9 303.354 20.5C303.354 19.12 303.074 17.9 302.514 16.84C301.954 15.76 301.184 14.92 300.204 14.32C299.224 13.7 298.084 13.39 296.784 13.39C295.524 13.39 294.394 13.7 293.394 14.32C292.414 14.92 291.644 15.76 291.084 16.84C290.524 17.9 290.244 19.12 290.244 20.5C290.244 21.9 290.524 23.13 291.084 24.19C291.644 25.25 292.424 26.09 293.424 26.71C294.424 27.31 295.574 27.61 296.874 27.61ZM320.276 31L320.036 28.24V16H323.996V31H320.276ZM310.106 23.68V16H314.066V23.68H310.106ZM314.066 23.68C314.066 24.68 314.176 25.47 314.396 26.05C314.636 26.61 314.966 27.02 315.386 27.28C315.826 27.52 316.316 27.64 316.856 27.64C317.896 27.66 318.686 27.35 319.226 26.71C319.766 26.05 320.036 25.1 320.036 23.86H321.386C321.386 25.46 321.146 26.82 320.666 27.94C320.186 29.04 319.526 29.89 318.686 30.49C317.846 31.07 316.856 31.36 315.716 31.36C314.516 31.36 313.496 31.12 312.656 30.64C311.816 30.16 311.176 29.42 310.736 28.42C310.316 27.4 310.106 26.09 310.106 24.49V23.68H314.066ZM334.207 31.36C332.727 31.36 331.417 31.03 330.277 30.37C329.137 29.69 328.237 28.76 327.577 27.58C326.937 26.4 326.617 25.04 326.617 23.5C326.617 21.96 326.947 20.6 327.607 19.42C328.287 18.24 329.207 17.32 330.367 16.66C331.547 15.98 332.897 15.64 334.417 15.64C335.737 15.64 336.947 15.99 338.047 16.69C339.167 17.37 340.057 18.38 340.717 19.72C341.397 21.04 341.737 22.65 341.737 24.55H330.367L330.727 24.19C330.727 24.93 330.907 25.58 331.267 26.14C331.647 26.68 332.127 27.1 332.707 27.4C333.307 27.68 333.947 27.82 334.627 27.82C335.447 27.82 336.117 27.65 336.637 27.31C337.157 26.95 337.557 26.49 337.837 25.93L341.377 27.31C340.957 28.15 340.407 28.88 339.727 29.5C339.067 30.1 338.277 30.56 337.357 30.88C336.437 31.2 335.387 31.36 334.207 31.36ZM330.937 21.97L330.577 21.61H337.807L337.477 21.97C337.477 21.25 337.307 20.68 336.967 20.26C336.627 19.82 336.207 19.5 335.707 19.3C335.227 19.1 334.757 19 334.297 19C333.837 19 333.347 19.1 332.827 19.3C332.307 19.5 331.857 19.82 331.477 20.26C331.117 20.68 330.937 21.25 330.937 21.97ZM349.648 31.36C348.688 31.36 347.788 31.22 346.948 30.94C346.108 30.64 345.368 30.22 344.728 29.68C344.088 29.12 343.588 28.44 343.228 27.64L346.618 26.08C346.918 26.56 347.328 26.98 347.848 27.34C348.368 27.68 348.968 27.85 349.648 27.85C350.308 27.85 350.818 27.76 351.178 27.58C351.538 27.38 351.718 27.1 351.718 26.74C351.718 26.38 351.568 26.12 351.268 25.96C350.988 25.78 350.598 25.63 350.098 25.51L348.718 25.15C347.278 24.77 346.138 24.17 345.298 23.35C344.478 22.51 344.068 21.55 344.068 20.47C344.068 18.93 344.558 17.74 345.538 16.9C346.538 16.06 347.948 15.64 349.768 15.64C350.708 15.64 351.578 15.78 352.378 16.06C353.198 16.34 353.898 16.73 354.478 17.23C355.058 17.73 355.458 18.31 355.678 18.97L352.408 20.47C352.268 20.07 351.928 19.75 351.388 19.51C350.848 19.25 350.308 19.12 349.768 19.12C349.228 19.12 348.808 19.24 348.508 19.48C348.228 19.7 348.088 20.01 348.088 20.41C348.088 20.67 348.228 20.89 348.508 21.07C348.788 21.23 349.188 21.37 349.708 21.49L351.658 21.97C352.638 22.21 353.418 22.6 353.998 23.14C354.598 23.66 355.028 24.25 355.288 24.91C355.568 25.55 355.708 26.18 355.708 26.8C355.708 27.7 355.438 28.5 354.898 29.2C354.378 29.88 353.658 30.41 352.738 30.79C351.838 31.17 350.808 31.36 349.648 31.36ZM364.193 31.36C362.533 31.36 361.273 30.95 360.413 30.13C359.573 29.31 359.153 28.14 359.153 26.62V11.32H363.113V25.75C363.113 26.39 363.253 26.88 363.533 27.22C363.813 27.54 364.223 27.7 364.763 27.7C364.963 27.7 365.183 27.66 365.423 27.58C365.663 27.48 365.913 27.34 366.173 27.16L367.553 30.13C367.073 30.49 366.533 30.78 365.933 31C365.353 31.24 364.773 31.36 364.193 31.36ZM356.723 19.36V16H366.863V19.36H356.723ZM370.323 31V16H374.283V31H370.323ZM372.303 13.57C371.703 13.57 371.173 13.35 370.713 12.91C370.253 12.45 370.023 11.91 370.023 11.29C370.023 10.67 370.253 10.14 370.713 9.7C371.173 9.24 371.703 9.01 372.303 9.01C372.923 9.01 373.453 9.24 373.893 9.7C374.353 10.14 374.583 10.67 374.583 11.29C374.583 11.91 374.353 12.45 373.893 12.91C373.453 13.35 372.923 13.57 372.303 13.57ZM384.985 31.36C383.465 31.36 382.105 31.03 380.905 30.37C379.725 29.69 378.795 28.76 378.115 27.58C377.455 26.4 377.125 25.04 377.125 23.5C377.125 21.96 377.455 20.6 378.115 19.42C378.775 18.24 379.695 17.32 380.875 16.66C382.055 15.98 383.405 15.64 384.925 15.64C386.465 15.64 387.825 15.98 389.005 16.66C390.185 17.32 391.105 18.24 391.765 19.42C392.425 20.6 392.755 21.96 392.755 23.5C392.755 25.04 392.425 26.4 391.765 27.58C391.105 28.76 390.185 29.69 389.005 30.37C387.845 31.03 386.505 31.36 384.985 31.36ZM384.985 27.7C385.725 27.7 386.375 27.52 386.935 27.16C387.495 26.8 387.925 26.31 388.225 25.69C388.545 25.05 388.705 24.32 388.705 23.5C388.705 22.68 388.545 21.96 388.225 21.34C387.905 20.7 387.455 20.2 386.875 19.84C386.315 19.48 385.665 19.3 384.925 19.3C384.205 19.3 383.555 19.48 382.975 19.84C382.415 20.2 381.975 20.7 381.655 21.34C381.335 21.96 381.175 22.68 381.175 23.5C381.175 24.32 381.335 25.05 381.655 25.69C381.975 26.31 382.425 26.8 383.005 27.16C383.585 27.52 384.245 27.7 384.985 27.7ZM395.366 31V16H399.086L399.326 18.76V31H395.366ZM405.296 31V23.32H409.256V31H405.296ZM405.296 23.32C405.296 22.3 405.176 21.51 404.936 20.95C404.716 20.39 404.396 19.99 403.976 19.75C403.556 19.49 403.066 19.36 402.506 19.36C401.486 19.34 400.696 19.65 400.136 20.29C399.596 20.93 399.326 21.88 399.326 23.14H398.006C398.006 21.54 398.236 20.19 398.696 19.09C399.176 17.97 399.836 17.12 400.676 16.54C401.536 15.94 402.536 15.64 403.676 15.64C404.856 15.64 405.866 15.88 406.706 16.36C407.546 16.84 408.186 17.59 408.626 18.61C409.066 19.61 409.276 20.91 409.256 22.51V23.32H405.296ZM418.027 31.36C417.067 31.36 416.167 31.22 415.327 30.94C414.487 30.64 413.747 30.22 413.107 29.68C412.467 29.12 411.967 28.44 411.607 27.64L414.997 26.08C415.297 26.56 415.707 26.98 416.227 27.34C416.747 27.68 417.347 27.85 418.027 27.85C418.687 27.85 419.197 27.76 419.557 27.58C419.917 27.38 420.097 27.1 420.097 26.74C420.097 26.38 419.947 26.12 419.647 25.96C419.367 25.78 418.977 25.63 418.477 25.51L417.097 25.15C415.657 24.77 414.517 24.17 413.677 23.35C412.857 22.51 412.447 21.55 412.447 20.47C412.447 18.93 412.937 17.74 413.917 16.9C414.917 16.06 416.327 15.64 418.147 15.64C419.087 15.64 419.957 15.78 420.757 16.06C421.577 16.34 422.277 16.73 422.857 17.23C423.437 17.73 423.837 18.31 424.057 18.97L420.787 20.47C420.647 20.07 420.307 19.75 419.767 19.51C419.227 19.25 418.687 19.12 418.147 19.12C417.607 19.12 417.187 19.24 416.887 19.48C416.607 19.7 416.467 20.01 416.467 20.41C416.467 20.67 416.607 20.89 416.887 21.07C417.167 21.23 417.567 21.37 418.087 21.49L420.037 21.97C421.017 22.21 421.797 22.6 422.377 23.14C422.977 23.66 423.407 24.25 423.667 24.91C423.947 25.55 424.087 26.18 424.087 26.8C424.087 27.7 423.817 28.5 423.277 29.2C422.757 29.88 422.037 30.41 421.117 30.79C420.217 31.17 419.187 31.36 418.027 31.36Z" fill="#1A1A1A"/>
<g clip-path="url(#clip0_6_23)">
<path d="M5.89212 33.9071C5.78345 33.543 5.9842 33.1507 6.35414 33.0322L10.7446 31.6809C11.1087 31.5723 11.501 31.773 11.6195 32.143C11.7301 32.5149 11.5274 32.8993 11.1575 33.0178L6.76701 34.3691C6.39509 34.4797 6.01061 34.277 5.89212 33.9071Z" fill="#DA9222"/>
<path d="M8.23055 23.4717C8.23055 23.8998 7.87515 24.239 7.44707 24.2309L2.37476 24.1582C1.94668 24.1582 1.60745 23.8029 1.61553 23.3748C1.61553 22.9467 1.97092 22.6075 2.399 22.6155L7.4713 22.6882C7.89937 22.6882 8.23863 23.0436 8.23055 23.4717Z" fill="#53BFBF"/>
<path d="M11.4296 12.2696C11.26 12.7946 10.6865 13.0773 10.1615 12.9076L3.91804 10.84C3.39304 10.6703 3.11035 10.0969 3.27996 9.57188C3.44958 9.04688 4.02305 8.76419 4.54805 8.9338L10.7915 11.0015C11.3165 11.1711 11.5992 11.7446 11.4296 12.2696Z" fill="#392BF6"/>
<path d="M20.9433 5.97854C20.6289 6.39389 20.0345 6.47039 19.6191 6.15597L14.6808 2.40017C14.2655 2.08575 14.189 1.49132 14.5033 1.07596C14.8178 0.660596 15.4122 0.584101 15.8275 0.898523L20.7659 4.65432C21.1813 4.96874 21.2577 5.56317 20.9433 5.97854Z" fill="#CE1054"/>
<path d="M15.4517 39.8951C15.247 39.608 15.3149 39.1944 15.6087 38.9942L19.0944 36.536C19.3815 36.3312 19.7951 36.3992 19.9952 36.693C20.2 36.9801 20.132 37.3936 19.8382 37.5938L16.3525 40.0521C16.0654 40.2568 15.6519 40.1889 15.4517 39.8951Z" fill="#4DBA41"/>
</g>
<g clip-path="url(#clip1_6_23)">
<path d="M453.954 10.1112C454.063 10.4754 453.862 10.8675 453.491 10.9855L449.099 12.3318C448.735 12.44 448.343 12.2388 448.225 11.8687C448.115 11.4967 448.318 11.1125 448.688 10.9944L453.08 9.64816C453.452 9.53793 453.836 9.7411 453.954 10.1112Z" fill="#DA9222"/>
<path d="M451.604 20.5439C451.605 20.1158 451.96 19.777 452.388 19.7855L457.461 19.864C457.889 19.8645 458.228 20.2203 458.219 20.6484C458.218 21.0764 457.863 21.4153 457.435 21.4067L452.362 21.3282C451.934 21.3277 451.595 20.9719 451.604 20.5439Z" fill="#53BFBF"/>
<path d="M448.392 31.7423C448.562 31.2175 449.136 30.9355 449.661 31.1057L455.902 33.1805C456.427 33.3508 456.709 33.9245 456.539 34.4494C456.368 34.9742 455.795 35.2562 455.27 35.086L449.029 33.0111C448.504 32.8409 448.222 32.2671 448.392 31.7423Z" fill="#392BF6"/>
<path d="M438.871 38.0224C439.186 37.6074 439.781 37.5316 440.196 37.8465L445.13 41.608C445.545 41.9229 445.62 42.5174 445.306 42.9324C444.991 43.3474 444.396 43.4232 443.981 43.1083L439.047 39.3469C438.632 39.032 438.556 38.4374 438.871 38.0224Z" fill="#CE1054"/>
<path d="M444.402 4.11222C444.606 4.39951 444.538 4.81305 444.244 5.01286L440.755 7.46715C440.468 7.67157 440.054 7.60309 439.855 7.30911C439.65 7.02174 439.719 6.60828 440.013 6.40847L443.501 3.95418C443.788 3.74975 444.202 3.81815 444.402 4.11222Z" fill="#4DBA41"/>
</g>
<defs>
<clipPath id="clip0_6_23">
<rect width="21.8077" height="42" fill="white"/>
</clipPath>
<clipPath id="clip1_6_23">
<rect width="21.8077" height="42" fill="white" transform="translate(459.808 44.025) rotate(-179.934)"/>
</clipPath>
</defs>
</svg>
