<svg width="286" height="97" viewBox="0 0 286 97" fill="none" xmlns="http://www.w3.org/2000/svg">
<mask id="mask0_1_222" style="mask-type:luminance" maskUnits="userSpaceOnUse" x="0" y="0" width="286" height="88">
<path d="M286 0H0V87.9098H286V0Z" fill="white"/>
</mask>
<g mask="url(#mask0_1_222)">
<path d="M27.9184 68.1785C24.2051 68.1785 20.8856 67.6474 17.9553 66.5851C15.0341 65.5229 12.5617 63.957 10.5379 61.8783C8.50956 59.8041 6.96656 57.2447 5.90432 54.2045C4.84207 51.1643 4.31095 47.6937 4.31095 43.7835C4.31095 39.7177 4.85123 36.128 5.94095 33.0145C7.02608 29.9011 8.58282 27.2455 10.6112 25.0477C12.6349 22.85 15.0479 21.1833 17.8454 20.0478C20.6521 18.9123 23.7976 18.3446 27.2774 18.3446C29.9742 18.3446 32.4604 18.7109 34.7314 19.4435C37.0024 20.1669 38.9529 21.1925 40.5921 22.5203C42.2404 23.8527 43.5224 25.4689 44.4381 27.3737C45.3539 29.2784 45.8117 31.4166 45.8117 33.7838L36.1783 36.2379C36.1783 34.1638 35.7433 32.4422 34.8779 31.0732C34.008 29.695 32.8725 28.6557 31.4714 27.9597C30.0658 27.2546 28.5457 26.8975 26.9111 26.8975C25.4551 26.8975 24.0403 27.1905 22.6621 27.7766C21.2931 28.3535 20.0431 29.2784 18.9076 30.5604C17.7721 31.8424 16.8747 33.509 16.2154 35.5603C15.5652 37.6115 15.2447 40.1343 15.2447 43.1242C15.2447 46.984 15.7988 50.1341 16.9114 52.5745C18.0194 55.0195 19.5532 56.8051 21.5083 57.9406C23.4588 59.0761 25.6703 59.6439 28.1382 59.6439C30.748 59.6439 32.7901 59.1036 34.2552 58.0139C35.7296 56.9288 36.7918 55.5185 37.442 53.7832C38.1013 52.0388 38.4538 50.2027 38.5042 48.2706L47.6981 49.7174C47.6478 52.2723 47.2677 54.6715 46.5626 56.915C45.8667 59.1631 44.7312 61.1365 43.1561 62.8306C41.5902 64.5156 39.5527 65.8296 37.039 66.7683C34.5345 67.7069 31.4943 68.1785 27.9184 68.1785Z" fill="#0E489B"/>
<path d="M55.0161 67.1712V19.3702H74.4296C76.7464 19.3702 78.9212 19.5534 80.9495 19.9196C82.9733 20.2768 84.8185 20.8171 86.4805 21.5496C88.1517 22.2731 89.5986 23.1888 90.8211 24.2968C92.0527 25.4094 92.9822 26.7281 93.6049 28.2528C94.2368 29.7683 94.5573 31.4899 94.5573 33.4175C94.5573 35.1024 94.3009 36.6225 93.788 37.9778C93.2844 39.3331 92.506 40.5327 91.4438 41.5674C90.3815 42.6068 89.0354 43.4538 87.4146 44.1132C85.8029 44.7633 83.9348 45.2029 81.8103 45.4318V46.4574C84.2736 46.7505 86.2516 47.3319 87.7442 48.1973C89.246 49.0672 90.4182 50.2485 91.2606 51.7503C92.1031 53.243 92.8403 55.0973 93.4767 57.318L96.2971 67.1712H84.7773L82.6162 58.1238C82.1766 56.1824 81.5448 54.6578 80.7298 53.5452C79.9102 52.4371 78.8846 51.6679 77.6529 51.2375C76.4167 50.798 74.9332 50.5782 73.2025 50.5782H65.4371V67.1712H55.0161ZM65.4371 42.6846H72.1769C72.9919 42.6846 73.9076 42.6617 74.9241 42.6114C75.9359 42.5656 76.9616 42.4236 78.0009 42.1901C79.0494 41.9475 79.9972 41.5629 80.8397 41.0363C81.6821 40.5006 82.3781 39.7497 82.9275 38.7836C83.4861 37.8221 83.77 36.5859 83.77 35.0841C83.77 33.5365 83.4998 32.2774 82.9641 31.3113C82.4376 30.3498 81.76 29.6035 80.9312 29.0769C80.1117 28.5412 79.2463 28.1566 78.3306 27.9231C77.4148 27.6804 76.5449 27.5339 75.7299 27.4836C74.9103 27.4378 74.2556 27.4103 73.7702 27.4103H65.4371V42.6846Z" fill="#0E489B"/>
<path d="M103.764 67.1712V19.3702H114.185V67.1712H103.764ZM110.998 67.1712V58.6183H140.338V67.1712H110.998ZM110.998 46.897V39.1316H136.712V46.897H110.998ZM110.998 27.8315V19.3702H140.192V27.8315H110.998Z" fill="#0E489B"/>
<path d="M153.165 67.1712V58.6183H166.993C168.687 58.6183 170.271 58.3573 171.736 57.8308C173.21 57.2951 174.492 56.4389 175.582 55.2667C176.667 54.0854 177.51 52.515 178.11 50.5599C178.719 48.5956 179.025 46.2148 179.025 43.4172C179.025 40.7067 178.741 38.3761 178.183 36.4211C177.633 34.4706 176.791 32.8497 175.655 31.5677C174.52 30.2857 173.091 29.3608 171.37 28.7839C169.657 28.1978 167.67 27.9048 165.399 27.9048H153.165V19.3702H165.033C170.83 19.3702 175.564 20.3134 179.227 22.1906C182.899 24.0725 185.591 26.7647 187.304 30.2674C189.025 33.7746 189.886 37.9595 189.886 42.8311C189.886 46.6039 189.437 49.8639 188.549 52.6111C187.656 55.3583 186.447 57.6659 184.923 59.534C183.393 61.3929 181.667 62.8856 179.74 64.0211C177.807 65.1566 175.77 65.9716 173.623 66.4569C171.471 66.9331 169.36 67.1712 167.286 67.1712H153.165ZM148.239 67.1712V19.3702H158.66V67.1712H148.239Z" fill="#0E489B"/>
<path d="M205.681 53.6184V45.4318H215.534C216.349 45.4318 217.279 45.4135 218.318 45.3769C219.353 45.3311 220.369 45.1571 221.358 44.8641C222.356 44.571 223.281 44.104 224.124 43.4538C224.966 42.7945 225.625 41.8971 226.102 40.7616C226.587 39.6261 226.834 38.1426 226.834 36.3112C226.834 34.5804 226.578 33.1565 226.065 32.0439C225.561 30.9358 224.902 30.0659 224.087 29.4432C223.267 28.8114 222.393 28.3535 221.468 28.0696C220.552 27.7766 219.682 27.6072 218.867 27.5568C218.048 27.511 217.37 27.4836 216.834 27.4836H205.681V19.3702H217.421C220.41 19.3702 223.126 19.7182 225.571 20.4141C228.011 21.1101 230.113 22.1632 231.871 23.5642C233.629 24.9699 234.989 26.7601 235.955 28.9304C236.93 31.1053 237.42 33.6372 237.42 36.5309C237.42 40.2579 236.568 43.3897 234.874 45.9263C233.189 48.4537 230.689 50.3722 227.384 51.6771C224.073 52.9728 219.934 53.6184 214.966 53.6184H205.681ZM198.373 67.1712V19.3702H208.794V67.1712H198.373Z" fill="#FF914D"/>
<path d="M244.586 67.1712V19.3702H255.007V67.1712H244.586ZM251.82 67.1712V58.6183H281.16V67.1712H251.82ZM251.82 46.897V39.1316H277.534V46.897H251.82ZM251.82 27.8315V19.3702H281.014V27.8315H251.82Z" fill="#FF914D"/>
</g>
<path d="M49.681 93.4067V89.0438L45 79.9771H47.1587L50.5673 87.2486H50.6582L54.0212 79.9771H56.2027L51.5444 89.0438V93.4067H49.681Z" fill="#1A1A1A"/>
<path d="M61.3397 93.6794C60.3229 93.6794 59.431 93.4578 58.6584 93.0204C57.8971 92.583 57.3006 91.9524 56.8632 91.1343C56.4372 90.3049 56.227 89.2881 56.227 88.0894C56.227 86.8794 56.4542 85.8738 56.9087 85.0672C57.3631 84.2491 57.9653 83.6356 58.7265 83.2266C59.4821 82.8175 60.3399 82.613 61.2943 82.613C62.26 82.613 63.1235 82.8346 63.8848 83.272C64.6574 83.6981 65.2596 84.3173 65.7027 85.1353C66.1571 85.9534 66.3844 86.9703 66.3844 88.1803C66.3844 89.396 66.1628 90.4072 65.7254 91.2252C65.2823 92.0433 64.6801 92.6568 63.9075 93.0658C63.1463 93.4749 62.2941 93.6794 61.3397 93.6794ZM61.3852 92.1342C61.7601 92.1342 62.1351 92.0774 62.4986 91.9524C62.8622 91.816 63.1917 91.6058 63.4985 91.3161C63.7996 91.015 64.0438 90.6117 64.2256 90.1118C64.4188 89.6119 64.521 88.987 64.521 88.2257C64.521 87.4702 64.4188 86.8339 64.2256 86.317C64.0268 85.8057 63.7712 85.3967 63.453 85.0899C63.1349 84.7718 62.777 84.5445 62.385 84.4082C61.9874 84.2605 61.6011 84.1809 61.2261 84.1809C60.8739 84.1809 60.5217 84.2491 60.1581 84.3855C59.7945 84.5104 59.4537 84.7206 59.1356 85.0217C58.8174 85.3114 58.5561 85.7034 58.363 86.2033C58.1812 86.6919 58.0903 87.3054 58.0903 88.0439C58.0903 88.8165 58.1812 89.4698 58.363 89.9982C58.5561 90.5151 58.8174 90.9298 59.1356 91.248C59.4651 91.5661 59.8286 91.7933 60.2263 91.9297C60.6183 92.066 61.0046 92.1342 61.3852 92.1342Z" fill="#1A1A1A"/>
<path d="M72.3495 93.6794C71.8155 93.6794 71.3553 93.5942 70.9634 93.4294C70.5657 93.2647 70.2248 93.0374 69.9408 92.7477C69.6681 92.4637 69.4466 92.1115 69.2818 91.7024C69.1114 91.282 68.9864 90.8162 68.8955 90.3163C68.816 89.8164 68.7819 89.271 68.7819 88.6802V82.8857H70.6452V88.2485C70.6452 88.6745 70.668 89.1063 70.7134 89.5437C70.7589 89.9868 70.8497 90.3958 70.9861 90.7708C71.1338 91.1514 71.3553 91.4525 71.6451 91.6797C71.9462 91.9069 72.3552 92.0206 72.8721 92.0206C73.2925 92.0206 73.6731 91.9183 74.0083 91.7024C74.3548 91.4922 74.6503 91.1968 74.8945 90.8162C75.1502 90.4242 75.3547 89.9641 75.5081 89.4301C75.6558 88.8847 75.7694 88.2882 75.8489 87.6349V82.8857H77.6895V93.4067H76.0534L76.2125 89.93H75.9171C75.7467 90.7935 75.4967 91.5093 75.1672 92.066C74.8491 92.6284 74.4457 93.0374 73.9629 93.2931C73.4914 93.5487 72.9517 93.6794 72.3495 93.6794Z" fill="#1A1A1A"/>
<path d="M80.784 93.4067V82.8857H82.4655L82.2837 86.6578H82.6246C82.7439 85.8284 82.9314 85.1126 83.1927 84.5218C83.4483 83.9196 83.7892 83.4481 84.2152 83.1129C84.6527 82.7834 85.181 82.613 85.8059 82.613C85.9422 82.613 86.1013 82.6301 86.2831 82.6585C86.4649 82.6926 86.6694 82.738 86.8966 82.7948L86.783 84.749C86.5842 84.6752 86.3797 84.6127 86.1695 84.5672C85.9706 84.5218 85.7832 84.4991 85.6014 84.4991C85.0674 84.4991 84.6072 84.6809 84.2152 85.0444C83.8346 85.3967 83.5165 85.8625 83.2609 86.4533C82.9995 87.0441 82.795 87.7201 82.6473 88.4757V93.4067H80.784Z" fill="#1A1A1A"/>
<path d="M99.7286 93.6794C98.7572 93.6794 97.888 93.526 97.1154 93.2249C96.3542 92.9068 95.7122 92.4637 95.1839 91.8842C94.6499 91.2934 94.2523 90.5776 93.9796 89.7255C93.7069 88.879 93.5706 87.919 93.5706 86.8396C93.5706 85.7489 93.7069 84.7661 93.9796 83.8855C94.2636 83.0107 94.6726 82.2608 95.2066 81.6359C95.735 81.0167 96.3712 80.5395 97.1154 80.2043C97.8539 79.8748 98.689 79.7044 99.615 79.7044C100.325 79.7044 100.978 79.8123 101.569 80.0225C102.171 80.2214 102.694 80.5111 103.137 80.886C103.575 81.2496 103.915 81.6984 104.16 82.2267C104.415 82.7607 104.546 83.3572 104.546 84.0219L102.796 84.4763C102.808 83.7662 102.666 83.1811 102.365 82.7266C102.058 82.2722 101.666 81.9313 101.183 81.7041C100.694 81.4655 100.16 81.3405 99.5696 81.3405C99.0356 81.3405 98.5243 81.4484 98.0244 81.6586C97.5358 81.8575 97.1041 82.1813 96.7291 82.6357C96.3485 83.0788 96.0474 83.6356 95.8202 84.3173C95.6043 84.999 95.5021 85.8284 95.5021 86.7941C95.5021 88.0098 95.6725 88.9983 96.0247 89.7709C96.3712 90.5435 96.8711 91.1116 97.5244 91.4752C98.1721 91.8274 98.9333 91.9978 99.7968 91.9978C100.626 91.9978 101.297 91.8501 101.796 91.5434C102.296 91.2423 102.666 90.8105 102.91 90.2481C103.166 89.6914 103.308 89.0381 103.342 88.2939L105.023 88.612C105.006 89.3108 104.893 89.9697 104.682 90.589C104.484 91.1968 104.171 91.7365 103.751 92.2023C103.325 92.6568 102.779 93.0204 102.115 93.2931C101.444 93.5487 100.649 93.6794 99.7286 93.6794Z" fill="#1A1A1A"/>
<path d="M107.319 93.4067V82.8857H109L108.819 86.6578H109.16C109.279 85.8284 109.466 85.1126 109.728 84.5218C109.983 83.9196 110.324 83.4481 110.75 83.1129C111.188 82.7834 111.716 82.613 112.341 82.613C112.477 82.613 112.636 82.6301 112.818 82.6585C113 82.6926 113.204 82.738 113.432 82.7948L113.318 84.749C113.119 84.6752 112.915 84.6127 112.704 84.5672C112.506 84.5218 112.318 84.4991 112.136 84.4991C111.602 84.4991 111.142 84.6809 110.75 85.0444C110.37 85.3967 110.051 85.8625 109.796 86.4533C109.534 87.0441 109.33 87.7201 109.182 88.4757V93.4067H107.319Z" fill="#1A1A1A"/>
<path d="M119.68 93.6794C118.828 93.6794 118.089 93.5487 117.453 93.2931C116.828 93.0374 116.3 92.6739 115.862 92.2023C115.436 91.7365 115.113 91.1741 114.885 90.5208C114.669 89.8561 114.567 89.1233 114.567 88.3166C114.567 87.4872 114.669 86.726 114.885 86.0443C115.113 85.3512 115.431 84.749 115.84 84.2491C116.26 83.7378 116.777 83.3345 117.385 83.0448C118.004 82.7607 118.709 82.613 119.498 82.613C120.191 82.613 120.822 82.738 121.384 82.9766C121.958 83.2038 122.441 83.5617 122.839 84.0446C123.248 84.5161 123.549 85.1126 123.747 85.8398C123.941 86.5555 124.026 87.402 123.997 88.3848L115.749 88.4302V87.1804L122.839 87.1123L122.225 87.9758C122.282 87.1293 122.202 86.4306 121.975 85.8852C121.759 85.3285 121.435 84.9024 120.998 84.6127C120.572 84.3286 120.072 84.1809 119.498 84.1809C118.873 84.1809 118.328 84.3514 117.862 84.6809C117.391 84.999 117.027 85.4705 116.771 86.0897C116.51 86.6976 116.385 87.4304 116.385 88.2939C116.385 89.5551 116.663 90.5094 117.226 91.1571C117.783 91.8104 118.612 92.1342 119.703 92.1342C120.123 92.1342 120.498 92.083 120.816 91.9751C121.134 91.8728 121.407 91.7251 121.634 91.5434C121.861 91.3616 122.043 91.1514 122.18 90.9071C122.327 90.6515 122.435 90.3788 122.498 90.0891L124.157 90.4299C124.032 90.9298 123.85 91.3843 123.611 91.7933C123.367 92.191 123.054 92.5318 122.679 92.8159C122.299 93.0886 121.861 93.3044 121.362 93.4521C120.862 93.5998 120.299 93.6794 119.68 93.6794Z" fill="#1A1A1A"/>
<path d="M130.316 93.6794C129.435 93.6794 128.68 93.4408 128.044 92.9749C127.407 92.5091 126.919 91.8615 126.589 91.0434C126.254 90.214 126.089 89.2483 126.089 88.1576C126.089 87.0668 126.248 86.1124 126.567 85.2944C126.885 84.465 127.351 83.8117 127.975 83.3402C128.612 82.8743 129.373 82.6357 130.271 82.6357C131.026 82.6357 131.64 82.7948 132.111 83.1129C132.594 83.4197 132.98 83.8287 133.27 84.34C133.554 84.8399 133.77 85.4023 133.906 86.0215H134.247C134.185 85.6125 134.122 85.1921 134.065 84.749C134.003 84.3116 133.957 83.8855 133.929 83.4765C133.895 83.0561 133.884 82.6755 133.884 82.3403V79.2045H135.747L135.724 88.2485L135.747 93.4067H134.065L134.179 90.4981H133.861C133.707 91.1343 133.48 91.6967 133.179 92.1796C132.872 92.6511 132.486 93.0204 132.02 93.2931C131.566 93.5487 130.998 93.6794 130.316 93.6794ZM130.748 92.0433C131.248 92.0433 131.685 91.9297 132.066 91.7024C132.458 91.4752 132.793 91.1741 133.066 90.7935C133.338 90.4185 133.543 90.0095 133.679 89.5664C133.815 89.129 133.884 88.7143 133.884 88.3166V88.0667C133.884 87.794 133.844 87.4929 133.77 87.1577C133.69 86.8282 133.571 86.4931 133.406 86.1579C133.253 85.8114 133.048 85.4932 132.793 85.2035C132.549 84.9195 132.259 84.6922 131.929 84.5218C131.594 84.34 131.214 84.2491 130.793 84.2491C130.185 84.2491 129.68 84.4252 129.271 84.7718C128.862 85.1069 128.544 85.5671 128.316 86.1579C128.1 86.7487 127.998 87.4304 127.998 88.203C127.998 88.9756 128.1 89.6516 128.316 90.2254C128.544 90.8048 128.862 91.248 129.271 91.5661C129.68 91.8842 130.168 92.0433 130.748 92.0433Z" fill="#1A1A1A"/>
<path d="M138.862 93.4067V82.8857H140.725V93.4067H138.862ZM139.771 81.0905C139.362 81.0905 139.044 81.011 138.817 80.8406C138.601 80.6588 138.499 80.3975 138.499 80.0453C138.499 79.6987 138.601 79.4431 138.817 79.2727C139.044 79.0909 139.362 79 139.771 79C140.208 79 140.532 79.0909 140.748 79.2727C140.975 79.4431 141.089 79.6987 141.089 80.0453C141.089 80.3975 140.975 80.6588 140.748 80.8406C140.532 81.011 140.208 81.0905 139.771 81.0905Z" fill="#1A1A1A"/>
<path d="M147.12 93.6112C146.648 93.6112 146.234 93.543 145.87 93.4067C145.506 93.2874 145.2 93.0999 144.961 92.8386C144.717 92.5659 144.535 92.2364 144.416 91.8388C144.291 91.4297 144.234 90.9469 144.234 90.3845V84.4309H142.689L142.711 82.9084H143.643C143.99 82.8971 144.24 82.8289 144.393 82.7039C144.558 82.5846 144.666 82.3631 144.711 82.0449L144.893 80.5225H146.052V82.8857H149.029V84.4764H146.052V90.3617C146.052 90.9241 146.177 91.3161 146.438 91.5434C146.711 91.7706 147.057 91.8842 147.483 91.8842C147.739 91.8842 148.006 91.8558 148.279 91.7933C148.551 91.7195 148.824 91.5831 149.097 91.3843V93.2476C148.716 93.384 148.358 93.4749 148.029 93.5203C147.694 93.5771 147.392 93.6112 147.12 93.6112Z" fill="#1A1A1A"/>
<path d="M150.401 96.1789C150.64 95.554 150.81 94.986 150.901 94.4747C151.004 93.9748 151.066 93.5033 151.083 93.0658C151.111 92.6284 151.129 92.191 151.129 91.7479H152.901C152.901 92.4637 152.856 93.0886 152.765 93.6339C152.674 94.1793 152.543 94.6565 152.378 95.0655C152.225 95.4859 152.066 95.8608 151.901 96.1789H150.401Z" fill="#1A1A1A"/>
<path d="M165.681 93.6794C164.709 93.6794 163.852 93.5203 163.113 93.2022C162.369 92.8727 161.738 92.4012 161.227 91.7933C160.727 91.1741 160.347 90.4413 160.091 89.5891C159.83 88.7427 159.705 87.794 159.705 86.7487C159.705 85.1921 159.96 83.8969 160.477 82.863C160.988 81.8177 161.693 81.0337 162.59 80.4997C163.499 79.9714 164.533 79.7044 165.704 79.7044C166.613 79.7044 167.431 79.8635 168.158 80.1816C168.896 80.4884 169.527 80.9428 170.044 81.545C170.555 82.1529 170.958 82.8971 171.248 83.7719C171.532 84.6524 171.68 85.6466 171.68 86.7487C171.68 87.811 171.549 88.7654 171.294 89.6119C171.032 90.464 170.646 91.1911 170.135 91.7933C169.618 92.4012 168.987 92.8727 168.249 93.2022C167.504 93.5203 166.647 93.6794 165.681 93.6794ZM165.681 92.066C166.101 92.066 166.55 91.9921 167.022 91.8388C167.504 91.6911 167.953 91.4297 168.362 91.0662C168.771 90.6912 169.101 90.1515 169.362 89.4528C169.618 88.7597 169.748 87.8735 169.748 86.7941C169.748 85.5103 169.555 84.4707 169.18 83.681C168.817 82.88 168.322 82.2949 167.703 81.9313C167.095 81.5564 166.431 81.3632 165.704 81.3632C165.306 81.3632 164.869 81.4314 164.386 81.5677C163.914 81.7041 163.465 81.9711 163.045 82.3631C162.636 82.7437 162.295 83.289 162.022 83.9991C161.75 84.6979 161.613 85.6125 161.613 86.7487C161.613 87.794 161.727 88.6575 161.954 89.3392C162.193 90.0209 162.511 90.5662 162.909 90.9753C163.318 91.3729 163.755 91.6513 164.227 91.816C164.709 91.9865 165.192 92.066 165.681 92.066Z" fill="#1A1A1A"/>
<path d="M177.859 93.6794C177.325 93.6794 176.865 93.5942 176.473 93.4294C176.075 93.2647 175.734 93.0374 175.45 92.7477C175.177 92.4637 174.956 92.1115 174.791 91.7024C174.621 91.282 174.496 90.8162 174.405 90.3163C174.325 89.8164 174.291 89.271 174.291 88.6802V82.8857H176.154V88.2485C176.154 88.6745 176.177 89.1063 176.223 89.5437C176.268 89.9868 176.359 90.3958 176.495 90.7708C176.643 91.1514 176.865 91.4525 177.154 91.6797C177.455 91.9069 177.864 92.0206 178.381 92.0206C178.802 92.0206 179.182 91.9183 179.517 91.7024C179.864 91.4922 180.159 91.1968 180.404 90.8162C180.659 90.4242 180.864 89.9641 181.017 89.4301C181.165 88.8847 181.279 88.2882 181.358 87.6349V82.8857H183.199V93.4067H181.563L181.722 89.93H181.426C181.256 90.7935 181.006 91.5093 180.676 92.066C180.358 92.6284 179.955 93.0374 179.472 93.2931C179.001 93.5487 178.461 93.6794 177.859 93.6794Z" fill="#1A1A1A"/>
<path d="M186.293 93.4067V82.8857H187.975L187.793 86.6578H188.134C188.253 85.8284 188.441 85.1126 188.702 84.5218C188.957 83.9196 189.298 83.4481 189.724 83.1129C190.162 82.7834 190.69 82.613 191.315 82.613C191.451 82.613 191.61 82.6301 191.792 82.6585C191.974 82.6926 192.179 82.738 192.406 82.7948L192.292 84.749C192.093 84.6752 191.889 84.6127 191.679 84.5672C191.48 84.5218 191.292 84.4991 191.111 84.4991C190.577 84.4991 190.116 84.6809 189.724 85.0444C189.344 85.3967 189.026 85.8625 188.77 86.4533C188.509 87.0441 188.304 87.7201 188.156 88.4757V93.4067H186.293Z" fill="#1A1A1A"/>
<path d="M205.238 93.6794C204.266 93.6794 203.397 93.526 202.625 93.2249C201.863 92.9068 201.221 92.4637 200.693 91.8842C200.159 91.2934 199.761 90.5776 199.489 89.7255C199.216 88.879 199.08 87.919 199.08 86.8396C199.08 85.7489 199.216 84.7661 199.489 83.8855C199.773 83.0107 200.182 82.2608 200.716 81.6359C201.244 81.0167 201.88 80.5395 202.625 80.2043C203.363 79.8748 204.198 79.7044 205.124 79.7044C205.834 79.7044 206.488 79.8123 207.078 80.0225C207.681 80.2214 208.203 80.5111 208.646 80.886C209.084 81.2496 209.425 81.6984 209.669 82.2267C209.925 82.7607 210.055 83.3572 210.055 84.0219L208.305 84.4763C208.317 83.7662 208.175 83.1811 207.874 82.7266C207.567 82.2722 207.175 81.9313 206.692 81.7041C206.204 81.4655 205.67 81.3405 205.079 81.3405C204.545 81.3405 204.033 81.4484 203.534 81.6586C203.045 81.8575 202.613 82.1813 202.238 82.6357C201.858 83.0788 201.557 83.6356 201.329 84.3173C201.113 84.999 201.011 85.8284 201.011 86.7941C201.011 88.0098 201.182 88.9983 201.534 89.7709C201.88 90.5435 202.38 91.1116 203.034 91.4752C203.681 91.8274 204.442 91.9978 205.306 91.9978C206.135 91.9978 206.806 91.8501 207.306 91.5434C207.806 91.2423 208.175 90.8105 208.419 90.2481C208.675 89.6914 208.817 89.0381 208.851 88.2939L210.532 88.612C210.515 89.3108 210.402 89.9697 210.192 90.589C209.993 91.1968 209.68 91.7365 209.26 92.2023C208.834 92.6568 208.288 93.0204 207.624 93.2931C206.953 93.5487 206.158 93.6794 205.238 93.6794Z" fill="#1A1A1A"/>
<path d="M215.386 93.6794C214.796 93.6794 214.262 93.5714 213.796 93.3612C213.341 93.134 212.978 92.8102 212.705 92.3841C212.432 91.9467 212.296 91.4013 212.296 90.748C212.296 90.0379 212.444 89.4698 212.75 89.0438C213.052 88.6234 213.438 88.2939 213.909 88.0667C214.375 87.8281 214.892 87.652 215.455 87.544C216.028 87.4418 216.591 87.3395 217.136 87.2486C217.681 87.1748 218.113 87.1009 218.431 87.0214C218.749 86.9475 218.977 86.8396 219.113 86.7033C219.249 86.5555 219.318 86.3397 219.318 86.067C219.318 85.6921 219.232 85.3626 219.068 85.0899C218.914 84.8058 218.681 84.5786 218.363 84.4082C218.056 84.2434 217.647 84.1582 217.136 84.1582C216.738 84.1582 216.341 84.2264 215.932 84.3627C215.523 84.4991 215.165 84.7377 214.864 85.0672C214.557 85.3853 214.364 85.8341 214.273 86.4078L212.591 85.8625C212.694 85.3512 212.87 84.8967 213.114 84.4991C213.37 84.1071 213.688 83.7662 214.068 83.4765C214.46 83.1925 214.915 82.9766 215.432 82.8403C215.943 82.6926 216.511 82.613 217.136 82.613C217.965 82.613 218.647 82.738 219.181 82.9766C219.71 83.2038 220.119 83.5333 220.408 83.9537C220.692 84.3627 220.891 84.8172 220.999 85.3171C221.101 85.817 221.158 86.3283 221.158 86.8396V89.1119C221.158 89.5551 221.164 90.0209 221.181 90.5208C221.209 91.0094 221.238 91.4979 221.272 91.9978C221.3 92.4977 221.34 92.9693 221.385 93.4067H219.681C219.647 92.9522 219.619 92.5091 219.59 92.066C219.556 91.6115 219.533 91.1571 219.522 90.7026H219.272C219.073 91.2366 218.801 91.7251 218.454 92.1796C218.119 92.6227 217.693 92.9863 217.182 93.2703C216.665 93.543 216.068 93.6794 215.386 93.6794ZM215.909 92.1569C216.21 92.1569 216.523 92.1114 216.841 92.0206C217.159 91.9183 217.466 91.7479 217.772 91.5206C218.09 91.2934 218.374 91.0094 218.636 90.6571C218.908 90.3106 219.141 89.8845 219.34 89.3846V87.4759L219.886 87.5667C219.67 87.7826 219.386 87.9474 219.022 88.0667C218.67 88.1746 218.278 88.2598 217.84 88.3166C217.397 88.3791 216.96 88.453 216.523 88.5439C216.096 88.6234 215.704 88.7256 215.341 88.862C214.977 88.9983 214.682 89.2028 214.455 89.4755C214.239 89.7368 214.137 90.0891 214.137 90.5435C214.137 91.0775 214.296 91.4752 214.614 91.7479C214.943 92.0206 215.375 92.1569 215.909 92.1569Z" fill="#1A1A1A"/>
<path d="M224.162 93.4067V82.8857H225.844L225.662 86.6578H226.003C226.122 85.8284 226.31 85.1126 226.571 84.5218C226.827 83.9196 227.168 83.4481 227.594 83.1129C228.031 82.7834 228.559 82.613 229.184 82.613C229.321 82.613 229.48 82.6301 229.662 82.6585C229.843 82.6926 230.048 82.738 230.275 82.7948L230.161 84.749C229.963 84.6752 229.758 84.6127 229.548 84.5672C229.349 84.5218 229.162 84.4991 228.98 84.4991C228.446 84.4991 227.986 84.6809 227.594 85.0444C227.213 85.3967 226.895 85.8625 226.639 86.4533C226.378 87.0441 226.174 87.7201 226.026 88.4757V93.4067H224.162Z" fill="#1A1A1A"/>
<path d="M236.523 93.6794C235.671 93.6794 234.933 93.5487 234.297 93.2931C233.672 93.0374 233.143 92.6739 232.706 92.2023C232.28 91.7365 231.956 91.1741 231.729 90.5208C231.513 89.8561 231.411 89.1233 231.411 88.3166C231.411 87.4872 231.513 86.726 231.729 86.0443C231.956 85.3512 232.274 84.749 232.683 84.2491C233.104 83.7378 233.621 83.3345 234.228 83.0448C234.848 82.7607 235.552 82.613 236.342 82.613C237.035 82.613 237.665 82.738 238.228 82.9766C238.801 83.2038 239.284 83.5617 239.682 84.0446C240.091 84.5161 240.392 85.1126 240.591 85.8398C240.784 86.5555 240.869 87.402 240.841 88.3848L232.592 88.4302V87.1804L239.682 87.1123L239.068 87.9758C239.125 87.1293 239.046 86.4306 238.819 85.8852C238.603 85.3285 238.279 84.9024 237.841 84.6127C237.415 84.3286 236.915 84.1809 236.342 84.1809C235.717 84.1809 235.171 84.3514 234.706 84.6809C234.234 84.999 233.87 85.4705 233.615 86.0897C233.354 86.6976 233.229 87.4304 233.229 88.2939C233.229 89.5551 233.507 90.5094 234.069 91.1571C234.626 91.8104 235.455 92.1342 236.546 92.1342C236.967 92.1342 237.342 92.083 237.66 91.9751C237.978 91.8728 238.25 91.7251 238.478 91.5434C238.705 91.3616 238.887 91.1514 239.023 90.9071C239.171 90.6515 239.279 90.3788 239.341 90.0891L241 90.4299C240.875 90.9298 240.693 91.3843 240.455 91.7933C240.21 92.191 239.898 92.5318 239.523 92.8159C239.142 93.0886 238.705 93.3044 238.205 93.4521C237.705 93.5998 237.143 93.6794 236.523 93.6794Z" fill="#1A1A1A"/>
</svg>
