<svg width="286" height="92" viewBox="0 0 286 92" fill="none" xmlns="http://www.w3.org/2000/svg">
<mask id="mask0_1_222" style="mask-type:luminance" maskUnits="userSpaceOnUse" x="0" y="0" width="286" height="88">
<path d="M286 0H0V87.9098H286V0Z" fill="white"/>
</mask>
<g mask="url(#mask0_1_222)">
<path d="M27.9184 68.1785C24.2051 68.1785 20.8856 67.6474 17.9553 66.5851C15.0341 65.5229 12.5617 63.957 10.5379 61.8783C8.50956 59.8041 6.96656 57.2447 5.90432 54.2045C4.84207 51.1643 4.31095 47.6937 4.31095 43.7835C4.31095 39.7177 4.85123 36.128 5.94095 33.0145C7.02608 29.9011 8.58282 27.2455 10.6112 25.0477C12.6349 22.85 15.0479 21.1833 17.8454 20.0478C20.6521 18.9123 23.7976 18.3446 27.2774 18.3446C29.9742 18.3446 32.4604 18.7109 34.7314 19.4435C37.0024 20.1669 38.9529 21.1925 40.5921 22.5203C42.2404 23.8527 43.5224 25.4689 44.4381 27.3737C45.3539 29.2784 45.8117 31.4166 45.8117 33.7838L36.1783 36.2379C36.1783 34.1638 35.7433 32.4422 34.8779 31.0732C34.008 29.695 32.8725 28.6557 31.4714 27.9597C30.0658 27.2546 28.5457 26.8975 26.9111 26.8975C25.4551 26.8975 24.0403 27.1905 22.6621 27.7766C21.2931 28.3535 20.0431 29.2784 18.9076 30.5604C17.7721 31.8424 16.8747 33.509 16.2154 35.5603C15.5652 37.6115 15.2447 40.1343 15.2447 43.1242C15.2447 46.984 15.7988 50.1341 16.9114 52.5745C18.0194 55.0195 19.5532 56.8051 21.5083 57.9406C23.4588 59.0761 25.6703 59.6439 28.1382 59.6439C30.748 59.6439 32.7901 59.1036 34.2552 58.0139C35.7296 56.9288 36.7918 55.5185 37.442 53.7832C38.1013 52.0388 38.4538 50.2027 38.5042 48.2706L47.6981 49.7174C47.6477 52.2723 47.2677 54.6715 46.5626 56.915C45.8667 59.1631 44.7312 61.1365 43.1561 62.8306C41.5902 64.5156 39.5527 65.8296 37.039 66.7683C34.5345 67.7069 31.4943 68.1785 27.9184 68.1785Z" fill="#0E489B"/>
<path d="M55.0161 67.1712V19.3702H74.4296C76.7464 19.3702 78.9212 19.5534 80.9495 19.9196C82.9733 20.2768 84.8185 20.8171 86.4805 21.5496C88.1517 22.2731 89.5986 23.1888 90.8211 24.2968C92.0527 25.4094 92.9822 26.7281 93.6049 28.2528C94.2368 29.7683 94.5573 31.4899 94.5573 33.4175C94.5573 35.1024 94.3009 36.6225 93.788 37.9778C93.2844 39.3331 92.506 40.5327 91.4438 41.5674C90.3815 42.6068 89.0354 43.4538 87.4146 44.1132C85.8029 44.7633 83.9348 45.2029 81.8103 45.4318V46.4574C84.2736 46.7505 86.2516 47.3319 87.7442 48.1973C89.246 49.0672 90.4182 50.2485 91.2606 51.7503C92.1031 53.243 92.8403 55.0973 93.4767 57.318L96.2971 67.1712H84.7773L82.6162 58.1238C82.1766 56.1824 81.5448 54.6578 80.7298 53.5452C79.9102 52.4371 78.8846 51.6679 77.6529 51.2375C76.4167 50.798 74.9332 50.5782 73.2025 50.5782H65.4371V67.1712H55.0161ZM65.4371 42.6846H72.1769C72.9919 42.6846 73.9076 42.6617 74.9241 42.6114C75.9359 42.5656 76.9616 42.4236 78.0009 42.1901C79.0494 41.9475 79.9972 41.5629 80.8397 41.0363C81.6821 40.5006 82.3781 39.7497 82.9275 38.7836C83.4861 37.8221 83.77 36.5859 83.77 35.0841C83.77 33.5365 83.4998 32.2774 82.9641 31.3113C82.4376 30.3498 81.76 29.6035 80.9312 29.0769C80.1117 28.5412 79.2463 28.1566 78.3306 27.9231C77.4148 27.6804 76.5449 27.5339 75.7299 27.4836C74.9103 27.4378 74.2556 27.4103 73.7702 27.4103H65.4371V42.6846Z" fill="#0E489B"/>
<path d="M103.764 67.1712V19.3702H114.185V67.1712H103.764ZM110.998 67.1712V58.6183H140.338V67.1712H110.998ZM110.998 46.897V39.1316H136.712V46.897H110.998ZM110.998 27.8315V19.3702H140.192V27.8315H110.998Z" fill="#0E489B"/>
<path d="M153.165 67.1712V58.6183H166.993C168.687 58.6183 170.271 58.3573 171.736 57.8308C173.21 57.2951 174.492 56.4389 175.582 55.2667C176.667 54.0854 177.51 52.515 178.11 50.5599C178.719 48.5956 179.025 46.2148 179.025 43.4172C179.025 40.7067 178.741 38.3761 178.183 36.4211C177.633 34.4706 176.791 32.8497 175.655 31.5677C174.52 30.2857 173.091 29.3608 171.37 28.7839C169.657 28.1978 167.67 27.9048 165.399 27.9048H153.165V19.3702H165.033C170.83 19.3702 175.564 20.3134 179.227 22.1906C182.899 24.0725 185.591 26.7647 187.304 30.2674C189.025 33.7746 189.886 37.9595 189.886 42.8311C189.886 46.6039 189.437 49.8639 188.549 52.6111C187.656 55.3583 186.447 57.6659 184.923 59.534C183.393 61.3929 181.667 62.8856 179.74 64.0211C177.807 65.1566 175.77 65.9716 173.623 66.4569C171.471 66.9331 169.36 67.1712 167.286 67.1712H153.165ZM148.239 67.1712V19.3702H158.66V67.1712H148.239Z" fill="#0E489B"/>
<path d="M205.681 53.6184V45.4318H215.534C216.349 45.4318 217.279 45.4135 218.318 45.3769C219.353 45.3311 220.369 45.1571 221.358 44.8641C222.356 44.571 223.281 44.104 224.124 43.4538C224.966 42.7945 225.625 41.8971 226.102 40.7616C226.587 39.6261 226.834 38.1426 226.834 36.3112C226.834 34.5804 226.578 33.1565 226.065 32.0439C225.561 30.9358 224.902 30.0659 224.087 29.4432C223.267 28.8114 222.393 28.3535 221.468 28.0696C220.552 27.7766 219.682 27.6072 218.867 27.5568C218.048 27.511 217.37 27.4836 216.834 27.4836H205.681V19.3702H217.421C220.41 19.3702 223.126 19.7182 225.571 20.4141C228.011 21.1101 230.113 22.1632 231.871 23.5642C233.629 24.9699 234.989 26.7601 235.955 28.9304C236.93 31.1053 237.42 33.6372 237.42 36.5309C237.42 40.2579 236.568 43.3897 234.874 45.9263C233.189 48.4537 230.689 50.3722 227.384 51.6771C224.073 52.9728 219.934 53.6184 214.966 53.6184H205.681ZM198.373 67.1712V19.3702H208.794V67.1712H198.373Z" fill="#FF914D"/>
<path d="M244.586 67.1712V19.3702H255.007V67.1712H244.586ZM251.82 67.1712V58.6183H281.16V67.1712H251.82ZM251.82 46.897V39.1316H277.534V46.897H251.82ZM251.82 27.8315V19.3702H281.014V27.8315H251.82Z" fill="#FF914D"/>
</g>
<path d="M54.2917 89.2083V85.2083L50 76.8958H51.9792L55.1042 83.5625H55.1875L58.2708 76.8958H60.2708L56 85.2083V89.2083H54.2917Z" fill="#737373"/>
<path d="M64.9806 89.4583C64.0483 89.4583 63.2306 89.2552 62.5223 88.8542C61.8243 88.4531 61.2775 87.875 60.8764 87.125C60.4858 86.3646 60.2931 85.4323 60.2931 84.3333C60.2931 83.224 60.5014 82.3021 60.9181 81.5625C61.3348 80.8125 61.8868 80.25 62.5848 79.875C63.2775 79.5 64.0639 79.3125 64.9389 79.3125C65.8243 79.3125 66.616 79.5156 67.3139 79.9167C68.0223 80.3073 68.5743 80.875 68.9806 81.625C69.3973 82.375 69.6056 83.3073 69.6056 84.4167C69.6056 85.5313 69.4025 86.4583 69.0014 87.2083C68.5952 87.9583 68.0431 88.5208 67.3348 88.8958C66.6368 89.2708 65.8556 89.4583 64.9806 89.4583ZM65.0223 88.0417C65.366 88.0417 65.7098 87.9896 66.0431 87.875C66.3764 87.75 66.6785 87.5573 66.9598 87.2917C67.2358 87.0156 67.4598 86.6458 67.6264 86.1875C67.8035 85.7292 67.8973 85.1563 67.8973 84.4583C67.8973 83.7656 67.8035 83.1823 67.6264 82.7083C67.4441 82.2396 67.2098 81.8646 66.9181 81.5833C66.6264 81.2917 66.2983 81.0833 65.9389 80.9583C65.5743 80.8229 65.2202 80.75 64.8764 80.75C64.5535 80.75 64.2306 80.8125 63.8973 80.9375C63.5639 81.0521 63.2514 81.2448 62.9598 81.5208C62.6681 81.7865 62.4285 82.1458 62.2514 82.6042C62.0848 83.0521 62.0014 83.6146 62.0014 84.2917C62.0014 85 62.0848 85.599 62.2514 86.0833C62.4285 86.5573 62.6681 86.9375 62.9598 87.2292C63.2618 87.5208 63.5952 87.7292 63.9598 87.8542C64.3191 87.9792 64.6733 88.0417 65.0223 88.0417Z" fill="#737373"/>
<path d="M75.0745 89.4583C74.5849 89.4583 74.1631 89.3802 73.8037 89.2292C73.4391 89.0781 73.1266 88.8698 72.8662 88.6042C72.6162 88.3437 72.4131 88.0208 72.262 87.6458C72.1058 87.2604 71.9912 86.8333 71.9079 86.375C71.8349 85.9167 71.8037 85.4167 71.8037 84.875V79.5625H73.512V84.4792C73.512 84.8698 73.5329 85.2656 73.5745 85.6667C73.6162 86.0729 73.6995 86.4479 73.8245 86.7917C73.9599 87.1406 74.1631 87.4167 74.4287 87.625C74.7047 87.8333 75.0797 87.9375 75.5537 87.9375C75.9391 87.9375 76.2881 87.8437 76.5954 87.6458C76.9131 87.4531 77.1839 87.1823 77.4079 86.8333C77.6422 86.474 77.8297 86.0521 77.9704 85.5625C78.1058 85.0625 78.2099 84.5156 78.2829 83.9167V79.5625H79.9704V89.2083H78.4704L78.6162 86.0208H78.3454C78.1891 86.8125 77.9599 87.4687 77.6579 87.9792C77.3662 88.4948 76.9964 88.8698 76.5537 89.1042C76.1214 89.3385 75.6266 89.4583 75.0745 89.4583Z" fill="#737373"/>
<path d="M82.8074 89.2083V79.5625H84.3491L84.1824 83.0208H84.4949C84.6043 82.2604 84.7762 81.6042 85.0158 81.0625C85.2502 80.5104 85.5627 80.0781 85.9533 79.7708C86.3543 79.4687 86.8387 79.3125 87.4116 79.3125C87.5366 79.3125 87.6824 79.3281 87.8491 79.3542C88.0158 79.3854 88.2033 79.4271 88.4116 79.4792L88.3074 81.2708C88.1252 81.2031 87.9377 81.1458 87.7449 81.1042C87.5627 81.0625 87.3908 81.0417 87.2241 81.0417C86.7345 81.0417 86.3127 81.2083 85.9533 81.5417C85.6043 81.8646 85.3127 82.2917 85.0783 82.8333C84.8387 83.375 84.6512 83.9948 84.5158 84.6875V89.2083H82.8074Z" fill="#737373"/>
<path d="M100.176 89.4583C99.2856 89.4583 98.4887 89.3177 97.7804 89.0417C97.0825 88.75 96.494 88.3437 96.0096 87.8125C95.52 87.2708 95.1554 86.6146 94.9054 85.8333C94.6554 85.0573 94.5304 84.1771 94.5304 83.1875C94.5304 82.1875 94.6554 81.2865 94.9054 80.4792C95.1658 79.6771 95.5408 78.9896 96.0304 78.4167C96.5148 77.849 97.0981 77.4115 97.7804 77.1042C98.4575 76.8021 99.2231 76.6458 100.072 76.6458C100.723 76.6458 101.322 76.7448 101.864 76.9375C102.416 77.1198 102.895 77.3854 103.301 77.7292C103.702 78.0625 104.015 78.474 104.239 78.9583C104.473 79.4479 104.593 79.9948 104.593 80.6042L102.989 81.0208C102.999 80.3698 102.869 79.8333 102.593 79.4167C102.312 79 101.952 78.6875 101.51 78.4792C101.062 78.2604 100.572 78.1458 100.03 78.1458C99.5408 78.1458 99.0721 78.2448 98.6137 78.4375C98.1658 78.6198 97.77 78.9167 97.4262 79.3333C97.0773 79.7396 96.8012 80.25 96.5929 80.875C96.395 81.5 96.3012 82.2604 96.3012 83.1458C96.3012 84.2604 96.4575 85.1667 96.7804 85.875C97.0981 86.5833 97.5565 87.1042 98.1554 87.4375C98.7492 87.7604 99.4471 87.9167 100.239 87.9167C100.999 87.9167 101.614 87.7812 102.072 87.5C102.53 87.224 102.869 86.8281 103.093 86.3125C103.327 85.8021 103.457 85.2031 103.489 84.5208L105.03 84.8125C105.015 85.4531 104.911 86.0573 104.718 86.625C104.536 87.1823 104.249 87.6771 103.864 88.1042C103.473 88.5208 102.973 88.8542 102.364 89.1042C101.749 89.3385 101.02 89.4583 100.176 89.4583Z" fill="#737373"/>
<path d="M107.135 89.2083V79.5625H108.677L108.51 83.0208H108.823C108.932 82.2604 109.104 81.6042 109.344 81.0625C109.578 80.5104 109.89 80.0781 110.281 79.7708C110.682 79.4687 111.166 79.3125 111.739 79.3125C111.864 79.3125 112.01 79.3281 112.177 79.3542C112.344 79.3854 112.531 79.4271 112.739 79.4792L112.635 81.2708C112.453 81.2031 112.265 81.1458 112.073 81.1042C111.89 81.0625 111.719 81.0417 111.552 81.0417C111.062 81.0417 110.64 81.2083 110.281 81.5417C109.932 81.8646 109.64 82.2917 109.406 82.8333C109.166 83.375 108.979 83.9948 108.844 84.6875V89.2083H107.135Z" fill="#737373"/>
<path d="M118.468 89.4583C117.687 89.4583 117.01 89.3385 116.426 89.1042C115.853 88.8698 115.369 88.5365 114.968 88.1042C114.577 87.6771 114.281 87.1615 114.072 86.5625C113.874 85.9531 113.781 85.2813 113.781 84.5417C113.781 83.7813 113.874 83.0833 114.072 82.4583C114.281 81.8229 114.572 81.2708 114.947 80.8125C115.333 80.3437 115.807 79.974 116.364 79.7083C116.932 79.4479 117.577 79.3125 118.301 79.3125C118.937 79.3125 119.515 79.4271 120.031 79.6458C120.557 79.8542 120.999 80.1823 121.364 80.625C121.739 81.0573 122.015 81.6042 122.197 82.2708C122.374 82.9271 122.452 83.7031 122.426 84.6042L114.864 84.6458V83.5L121.364 83.4375L120.801 84.2292C120.853 83.4531 120.781 82.8125 120.572 82.3125C120.374 81.8021 120.077 81.4115 119.676 81.1458C119.286 80.8854 118.827 80.75 118.301 80.75C117.728 80.75 117.228 80.9063 116.801 81.2083C116.369 81.5 116.036 81.9323 115.801 82.5C115.562 83.0573 115.447 83.7292 115.447 84.5208C115.447 85.6771 115.702 86.5521 116.218 87.1458C116.728 87.7448 117.489 88.0417 118.489 88.0417C118.874 88.0417 119.218 87.9948 119.51 87.8958C119.801 87.8021 120.051 87.6667 120.26 87.5C120.468 87.3333 120.635 87.1406 120.76 86.9167C120.895 86.6823 120.994 86.4323 121.051 86.1667L122.572 86.4792C122.458 86.9375 122.291 87.3542 122.072 87.7292C121.848 88.0937 121.562 88.4063 121.218 88.6667C120.869 88.9167 120.468 89.1146 120.01 89.25C119.551 89.3854 119.036 89.4583 118.468 89.4583Z" fill="#737373"/>
<path d="M128.219 89.4583C127.412 89.4583 126.719 89.2396 126.136 88.8125C125.553 88.3854 125.105 87.7917 124.803 87.0417C124.495 86.2813 124.344 85.3958 124.344 84.3958C124.344 83.3958 124.49 82.5208 124.782 81.7708C125.073 81.0104 125.501 80.4115 126.073 79.9792C126.657 79.5521 127.355 79.3333 128.178 79.3333C128.87 79.3333 129.433 79.4792 129.865 79.7708C130.308 80.0521 130.662 80.4271 130.928 80.8958C131.188 81.3542 131.386 81.8698 131.511 82.4375H131.823C131.766 82.0625 131.709 81.6771 131.657 81.2708C131.6 80.8698 131.558 80.4792 131.532 80.1042C131.501 79.7187 131.49 79.3698 131.49 79.0625V76.1875H133.198L133.178 84.4792L133.198 89.2083H131.657L131.761 86.5417H131.469C131.329 87.125 131.12 87.6406 130.844 88.0833C130.563 88.5156 130.209 88.8542 129.782 89.1042C129.365 89.3385 128.844 89.4583 128.219 89.4583ZM128.615 87.9583C129.073 87.9583 129.475 87.8542 129.823 87.6458C130.183 87.4375 130.49 87.1615 130.74 86.8125C130.99 86.4687 131.178 86.0937 131.303 85.6875C131.428 85.2865 131.49 84.9063 131.49 84.5417V84.3125C131.49 84.0625 131.454 83.7865 131.386 83.4792C131.313 83.1771 131.204 82.8698 131.053 82.5625C130.912 82.2448 130.725 81.9531 130.49 81.6875C130.266 81.4271 130.001 81.2187 129.698 81.0625C129.391 80.8958 129.042 80.8125 128.657 80.8125C128.1 80.8125 127.636 80.974 127.261 81.2917C126.886 81.599 126.594 82.0208 126.386 82.5625C126.188 83.1042 126.094 83.7292 126.094 84.4375C126.094 85.1458 126.188 85.7656 126.386 86.2917C126.594 86.8229 126.886 87.2292 127.261 87.5208C127.636 87.8125 128.084 87.9583 128.615 87.9583Z" fill="#737373"/>
<path d="M136.055 89.2083V79.5625H137.763V89.2083H136.055ZM136.888 77.9167C136.513 77.9167 136.221 77.8437 136.013 77.6875C135.815 77.5208 135.721 77.2813 135.721 76.9583C135.721 76.6406 135.815 76.4063 136.013 76.25C136.221 76.0833 136.513 76 136.888 76C137.289 76 137.586 76.0833 137.784 76.25C137.992 76.4063 138.096 76.6406 138.096 76.9583C138.096 77.2813 137.992 77.5208 137.784 77.6875C137.586 77.8437 137.289 77.9167 136.888 77.9167Z" fill="#737373"/>
<path d="M143.625 89.3958C143.193 89.3958 142.813 89.3333 142.479 89.2083C142.146 89.099 141.865 88.9271 141.646 88.6875C141.422 88.4375 141.256 88.1354 141.146 87.7708C141.032 87.3958 140.979 86.9531 140.979 86.4375V80.9792H139.563L139.584 79.5833H140.438C140.756 79.5729 140.985 79.5104 141.125 79.3958C141.276 79.2865 141.375 79.0833 141.417 78.7917L141.584 77.3958H142.646V79.5625H145.375V81.0208H142.646V86.4167C142.646 86.9323 142.761 87.2917 143 87.5C143.25 87.7083 143.568 87.8125 143.959 87.8125C144.193 87.8125 144.438 87.7865 144.688 87.7292C144.938 87.6615 145.188 87.5365 145.438 87.3542V89.0625C145.089 89.1875 144.761 89.2708 144.459 89.3125C144.151 89.3646 143.875 89.3958 143.625 89.3958Z" fill="#737373"/>
<path d="M146.634 91.75C146.853 91.1771 147.009 90.6563 147.092 90.1875C147.186 89.7292 147.243 89.2969 147.259 88.8958C147.285 88.4948 147.301 88.0937 147.301 87.6875H148.926C148.926 88.3437 148.884 88.9167 148.801 89.4167C148.717 89.9167 148.598 90.3542 148.446 90.7292C148.306 91.1146 148.16 91.4583 148.009 91.75H146.634Z" fill="#737373"/>
<path d="M160.642 89.4583C159.752 89.4583 158.965 89.3125 158.288 89.0208C157.606 88.7187 157.028 88.2865 156.559 87.7292C156.101 87.1615 155.752 86.4896 155.517 85.7083C155.278 84.9323 155.163 84.0625 155.163 83.1042C155.163 81.6771 155.398 80.4896 155.872 79.5417C156.34 78.5833 156.986 77.8646 157.809 77.375C158.642 76.8906 159.59 76.6458 160.663 76.6458C161.497 76.6458 162.247 76.7917 162.913 77.0833C163.59 77.3646 164.169 77.7812 164.642 78.3333C165.111 78.8906 165.481 79.5729 165.747 80.375C166.007 81.1823 166.142 82.0937 166.142 83.1042C166.142 84.0781 166.023 84.9531 165.788 85.7292C165.549 86.5104 165.195 87.1771 164.726 87.7292C164.252 88.2865 163.674 88.7187 162.997 89.0208C162.314 89.3125 161.528 89.4583 160.642 89.4583ZM160.642 87.9792C161.028 87.9792 161.439 87.9115 161.872 87.7708C162.314 87.6354 162.726 87.3958 163.101 87.0625C163.476 86.7187 163.778 86.224 164.017 85.5833C164.252 84.9479 164.372 84.1354 164.372 83.1458C164.372 81.9687 164.195 81.0156 163.851 80.2917C163.517 79.5573 163.064 79.0208 162.497 78.6875C161.939 78.3437 161.33 78.1667 160.663 78.1667C160.299 78.1667 159.898 78.2292 159.455 78.3542C159.023 78.4792 158.611 78.724 158.226 79.0833C157.851 79.4323 157.538 79.9323 157.288 80.5833C157.038 81.224 156.913 82.0625 156.913 83.1042C156.913 84.0625 157.017 84.8542 157.226 85.4792C157.445 86.1042 157.736 86.6042 158.101 86.9792C158.476 87.3437 158.877 87.599 159.309 87.75C159.752 87.9062 160.195 87.9792 160.642 87.9792Z" fill="#737373"/>
<path d="M171.807 89.4583C171.318 89.4583 170.896 89.3802 170.536 89.2292C170.172 89.0781 169.859 88.8698 169.599 88.6042C169.349 88.3437 169.146 88.0208 168.995 87.6458C168.839 87.2604 168.724 86.8333 168.641 86.375C168.568 85.9167 168.536 85.4167 168.536 84.875V79.5625H170.245V84.4792C170.245 84.8698 170.266 85.2656 170.307 85.6667C170.349 86.0729 170.432 86.4479 170.557 86.7917C170.693 87.1406 170.896 87.4167 171.161 87.625C171.438 87.8333 171.813 87.9375 172.286 87.9375C172.672 87.9375 173.021 87.8437 173.328 87.6458C173.646 87.4531 173.917 87.1823 174.141 86.8333C174.375 86.474 174.563 86.0521 174.703 85.5625C174.839 85.0625 174.943 84.5156 175.016 83.9167V79.5625H176.703V89.2083H175.203L175.349 86.0208H175.078C174.922 86.8125 174.693 87.4687 174.391 87.9792C174.099 88.4948 173.729 88.8698 173.286 89.1042C172.854 89.3385 172.359 89.4583 171.807 89.4583Z" fill="#737373"/>
<path d="M179.54 89.2083V79.5625H181.082L180.915 83.0208H181.228C181.337 82.2604 181.509 81.6042 181.749 81.0625C181.983 80.5104 182.295 80.0781 182.686 79.7708C183.087 79.4687 183.571 79.3125 184.144 79.3125C184.269 79.3125 184.415 79.3281 184.582 79.3542C184.749 79.3854 184.936 79.4271 185.144 79.4792L185.04 81.2708C184.858 81.2031 184.67 81.1458 184.478 81.1042C184.295 81.0625 184.124 81.0417 183.957 81.0417C183.467 81.0417 183.045 81.2083 182.686 81.5417C182.337 81.8646 182.045 82.2917 181.811 82.8333C181.571 83.375 181.384 83.9948 181.249 84.6875V89.2083H179.54Z" fill="#737373"/>
<path d="M196.909 89.4583C196.018 89.4583 195.222 89.3177 194.513 89.0417C193.815 88.75 193.227 88.3437 192.742 87.8125C192.253 87.2708 191.888 86.6146 191.638 85.8333C191.388 85.0573 191.263 84.1771 191.263 83.1875C191.263 82.1875 191.388 81.2865 191.638 80.4792C191.899 79.6771 192.274 78.9896 192.763 78.4167C193.248 77.849 193.831 77.4115 194.513 77.1042C195.19 76.8021 195.956 76.6458 196.805 76.6458C197.456 76.6458 198.055 76.7448 198.597 76.9375C199.149 77.1198 199.628 77.3854 200.034 77.7292C200.435 78.0625 200.748 78.474 200.972 78.9583C201.206 79.4479 201.326 79.9948 201.326 80.6042L199.722 81.0208C199.732 80.3698 199.602 79.8333 199.326 79.4167C199.044 79 198.685 78.6875 198.242 78.4792C197.794 78.2604 197.305 78.1458 196.763 78.1458C196.274 78.1458 195.805 78.2448 195.347 78.4375C194.899 78.6198 194.503 78.9167 194.159 79.3333C193.81 79.7396 193.534 80.25 193.326 80.875C193.128 81.5 193.034 82.2604 193.034 83.1458C193.034 84.2604 193.19 85.1667 193.513 85.875C193.831 86.5833 194.289 87.1042 194.888 87.4375C195.482 87.7604 196.18 87.9167 196.972 87.9167C197.732 87.9167 198.347 87.7812 198.805 87.5C199.263 87.224 199.602 86.8281 199.826 86.3125C200.06 85.8021 200.19 85.2031 200.222 84.5208L201.763 84.8125C201.748 85.4531 201.643 86.0573 201.451 86.625C201.268 87.1823 200.982 87.6771 200.597 88.1042C200.206 88.5208 199.706 88.8542 199.097 89.1042C198.482 89.3385 197.753 89.4583 196.909 89.4583Z" fill="#737373"/>
<path d="M206.213 89.4583C205.672 89.4583 205.182 89.3594 204.755 89.1667C204.338 88.9583 204.005 88.6615 203.755 88.2708C203.505 87.8698 203.38 87.3698 203.38 86.7708C203.38 86.1198 203.516 85.599 203.797 85.2083C204.073 84.8229 204.427 84.5208 204.859 84.3125C205.286 84.0937 205.76 83.9323 206.276 83.8333C206.802 83.7396 207.318 83.6458 207.818 83.5625C208.318 83.4948 208.713 83.4271 209.005 83.3542C209.297 83.2865 209.505 83.1875 209.63 83.0625C209.755 82.9271 209.818 82.7292 209.818 82.4792C209.818 82.1354 209.739 81.8333 209.588 81.5833C209.448 81.3229 209.234 81.1146 208.943 80.9583C208.661 80.8073 208.286 80.7292 207.818 80.7292C207.453 80.7292 207.088 80.7917 206.713 80.9167C206.338 81.0417 206.01 81.2604 205.734 81.5625C205.453 81.8542 205.276 82.2656 205.193 82.7917L203.651 82.2917C203.745 81.8229 203.906 81.4063 204.13 81.0417C204.364 80.6823 204.656 80.3698 205.005 80.1042C205.364 79.8437 205.781 79.6458 206.255 79.5208C206.724 79.3854 207.245 79.3125 207.818 79.3125C208.578 79.3125 209.203 79.4271 209.693 79.6458C210.177 79.8542 210.552 80.1563 210.818 80.5417C211.078 80.9167 211.26 81.3333 211.359 81.7917C211.453 82.25 211.505 82.7187 211.505 83.1875V85.2708C211.505 85.6771 211.51 86.1042 211.526 86.5625C211.552 87.0104 211.578 87.4583 211.609 87.9167C211.635 88.375 211.672 88.8073 211.713 89.2083H210.151C210.12 88.7917 210.094 88.3854 210.068 87.9792C210.036 87.5625 210.016 87.1458 210.005 86.7292H209.776C209.594 87.2187 209.344 87.6667 209.026 88.0833C208.719 88.4896 208.328 88.8229 207.859 89.0833C207.385 89.3333 206.838 89.4583 206.213 89.4583ZM206.693 88.0625C206.969 88.0625 207.255 88.0208 207.547 87.9375C207.838 87.8437 208.12 87.6875 208.401 87.4792C208.693 87.2708 208.953 87.0104 209.193 86.6875C209.443 86.3698 209.656 85.9792 209.838 85.5208V83.7708L210.338 83.8542C210.141 84.0521 209.88 84.2031 209.547 84.3125C209.224 84.4115 208.864 84.4896 208.463 84.5417C208.057 84.599 207.656 84.6667 207.255 84.75C206.864 84.8229 206.505 84.9167 206.172 85.0417C205.838 85.1667 205.568 85.3542 205.359 85.6042C205.161 85.8437 205.068 86.1667 205.068 86.5833C205.068 87.0729 205.213 87.4375 205.505 87.6875C205.807 87.9375 206.203 88.0625 206.693 88.0625Z" fill="#737373"/>
<path d="M214.26 89.2083V79.5625H215.801L215.635 83.0208H215.947C216.056 82.2604 216.228 81.6042 216.468 81.0625C216.702 80.5104 217.015 80.0781 217.405 79.7708C217.806 79.4687 218.291 79.3125 218.864 79.3125C218.989 79.3125 219.135 79.3281 219.301 79.3542C219.468 79.3854 219.655 79.4271 219.864 79.4792L219.76 81.2708C219.577 81.2031 219.39 81.1458 219.197 81.1042C219.015 81.0625 218.843 81.0417 218.676 81.0417C218.187 81.0417 217.765 81.2083 217.405 81.5417C217.056 81.8646 216.765 82.2917 216.53 82.8333C216.291 83.375 216.103 83.9948 215.968 84.6875V89.2083H214.26Z" fill="#737373"/>
<path d="M225.592 89.4583C224.811 89.4583 224.134 89.3385 223.551 89.1042C222.978 88.8698 222.493 88.5365 222.092 88.1042C221.702 87.6771 221.405 87.1615 221.196 86.5625C220.999 85.9531 220.905 85.2813 220.905 84.5417C220.905 83.7813 220.999 83.0833 221.196 82.4583C221.405 81.8229 221.696 81.2708 222.071 80.8125C222.457 80.3437 222.931 79.974 223.488 79.7083C224.056 79.4479 224.702 79.3125 225.426 79.3125C226.061 79.3125 226.639 79.4271 227.155 79.6458C227.681 79.8542 228.124 80.1823 228.488 80.625C228.863 81.0573 229.139 81.6042 229.321 82.2708C229.499 82.9271 229.577 83.7031 229.551 84.6042L221.988 84.6458V83.5L228.488 83.4375L227.926 84.2292C227.978 83.4531 227.905 82.8125 227.696 82.3125C227.499 81.8021 227.202 81.4115 226.801 81.1458C226.41 80.8854 225.952 80.75 225.426 80.75C224.853 80.75 224.353 80.9063 223.926 81.2083C223.493 81.5 223.16 81.9323 222.926 82.5C222.686 83.0573 222.571 83.7292 222.571 84.5208C222.571 85.6771 222.827 86.5521 223.342 87.1458C223.853 87.7448 224.613 88.0417 225.613 88.0417C225.999 88.0417 226.342 87.9948 226.634 87.8958C226.926 87.8021 227.176 87.6667 227.384 87.5C227.592 87.3333 227.759 87.1406 227.884 86.9167C228.019 86.6823 228.118 86.4323 228.176 86.1667L229.696 86.4792C229.582 86.9375 229.415 87.3542 229.196 87.7292C228.973 88.0937 228.686 88.4063 228.342 88.6667C227.993 88.9167 227.592 89.1146 227.134 89.25C226.676 89.3854 226.16 89.4583 225.592 89.4583Z" fill="#737373"/>
</svg>
