<svg width="361" height="336" viewBox="0 0 361 336" fill="none" xmlns="http://www.w3.org/2000/svg">
<path d="M27.5462 145.66V154.53" stroke="#263238" stroke-linecap="round" stroke-linejoin="round"/>
<path d="M31.9862 150.1H23.1162" stroke="#263238" stroke-linecap="round" stroke-linejoin="round"/>
<path d="M330.216 69.66V78.53" stroke="#263238" stroke-linecap="round" stroke-linejoin="round"/>
<path d="M334.646 74.1H325.776" stroke="#263238" stroke-linecap="round" stroke-linejoin="round"/>
<path d="M319.44 276V284.87" stroke="#263238" stroke-linecap="round" stroke-linejoin="round"/>
<path d="M323.87 280.44H315" stroke="#263238" stroke-linecap="round" stroke-linejoin="round"/>
<path d="M204.216 1V9.87" stroke="#263238" stroke-linecap="round" stroke-linejoin="round"/>
<path d="M208.646 5.42999H199.776" stroke="#263238" stroke-linecap="round" stroke-linejoin="round"/>
<path d="M58.2162 245V253.87" stroke="#263238" stroke-linecap="round" stroke-linejoin="round"/>
<path d="M62.6462 249.43H53.7762" stroke="#263238" stroke-linecap="round" stroke-linejoin="round"/>
<path d="M326.246 37.69C326.248 39.1421 325.819 40.5622 325.014 41.7706C324.209 42.979 323.063 43.9213 321.722 44.4784C320.381 45.0355 318.905 45.1823 317.48 44.9002C316.056 44.6181 314.747 43.9198 313.72 42.8937C312.692 41.8676 311.992 40.5597 311.708 39.1356C311.424 37.7116 311.569 36.2352 312.124 34.8934C312.679 33.5516 313.62 32.4047 314.827 31.5977C316.035 30.7907 317.454 30.36 318.906 30.36C320.851 30.36 322.717 31.1319 324.093 32.5063C325.469 33.8807 326.244 35.745 326.246 37.69Z" stroke="#263238" stroke-linecap="round" stroke-linejoin="round"/>
<path d="M340.68 319.33C340.682 320.782 340.253 322.202 339.448 323.411C338.643 324.619 337.497 325.561 336.156 326.118C334.815 326.675 333.339 326.822 331.914 326.54C330.49 326.258 329.181 325.56 328.153 324.534C327.126 323.508 326.426 322.2 326.142 320.776C325.858 319.352 326.003 317.875 326.558 316.533C327.113 315.192 328.054 314.045 329.261 313.238C330.468 312.431 331.888 312 333.34 312C335.285 312 337.15 312.772 338.527 314.146C339.903 315.521 340.677 317.385 340.68 319.33Z" stroke="#263238" stroke-linecap="round" stroke-linejoin="round"/>
<path d="M12.3822 213.805C16.1223 212.256 17.8984 207.968 16.3492 204.228C14.8 200.488 10.5121 198.712 6.77204 200.261C3.03195 201.811 1.25588 206.098 2.80508 209.838C4.35427 213.579 8.64209 215.355 12.3822 213.805Z" stroke="#263238" stroke-linecap="round" stroke-linejoin="round"/>
<path d="M359.576 112.69C359.594 112.92 359.564 113.15 359.488 113.368C359.413 113.585 359.293 113.784 359.137 113.953C358.98 114.122 358.791 114.257 358.58 114.349C358.369 114.442 358.141 114.489 357.911 114.489C357.681 114.489 357.453 114.442 357.242 114.349C357.031 114.257 356.842 114.122 356.685 113.953C356.529 113.784 356.409 113.585 356.334 113.368C356.258 113.15 356.228 112.92 356.246 112.69C356.279 112.271 356.468 111.879 356.777 111.593C357.086 111.308 357.491 111.149 357.911 111.149C358.332 111.149 358.737 111.308 359.045 111.593C359.354 111.879 359.544 112.271 359.576 112.69Z" stroke="#263238" stroke-linecap="round" stroke-linejoin="round"/>
<path d="M350.335 255.541C350.353 255.77 350.323 256.001 350.247 256.218C350.172 256.436 350.052 256.635 349.896 256.804C349.739 256.973 349.55 257.108 349.339 257.2C349.128 257.292 348.9 257.34 348.67 257.34C348.44 257.34 348.212 257.292 348.001 257.2C347.79 257.108 347.601 256.973 347.444 256.804C347.288 256.635 347.168 256.436 347.093 256.218C347.017 256.001 346.987 255.77 347.005 255.541C347.038 255.122 347.227 254.73 347.536 254.444C347.844 254.159 348.249 254 348.67 254C349.091 254 349.496 254.159 349.804 254.444C350.113 254.73 350.302 255.122 350.335 255.541Z" stroke="#263238" stroke-linecap="round" stroke-linejoin="round"/>
<path d="M105.246 88.69C105.248 89.0207 105.152 89.3446 104.97 89.6205C104.787 89.8965 104.527 90.1121 104.222 90.24C103.917 90.3679 103.581 90.4024 103.257 90.3391C102.932 90.2758 102.633 90.1176 102.399 89.8844C102.164 89.6513 102.004 89.3537 101.939 89.0295C101.874 88.7053 101.906 88.369 102.032 88.0632C102.158 87.7575 102.372 87.4961 102.647 87.3121C102.922 87.1282 103.245 87.03 103.576 87.03C104.017 87.03 104.441 87.2046 104.754 87.5156C105.066 87.8266 105.244 88.2488 105.246 88.69Z" stroke="#263238" stroke-linecap="round" stroke-linejoin="round"/>
<path d="M287.466 31.44H133.066C129.338 31.44 126.316 34.4621 126.316 38.19V327.28C126.316 331.008 129.338 334.03 133.066 334.03H287.466C291.194 334.03 294.216 331.008 294.216 327.28V38.19C294.216 34.4621 291.194 31.44 287.466 31.44Z" fill="#263238" stroke="#263238" stroke-linecap="round" stroke-linejoin="round"/>
<path d="M282.136 31.44H127.736C124.008 31.44 120.986 34.4621 120.986 38.19V327.28C120.986 331.008 124.008 334.03 127.736 334.03H282.136C285.864 334.03 288.886 331.008 288.886 327.28V38.19C288.886 34.4621 285.864 31.44 282.136 31.44Z" fill="white"/>
<mask id="mask0_2_145" style="mask-type:luminance" maskUnits="userSpaceOnUse" x="120" y="31" width="169" height="304">
<path d="M282.136 31.44H127.736C124.008 31.44 120.986 34.4621 120.986 38.19V327.28C120.986 331.008 124.008 334.03 127.736 334.03H282.136C285.864 334.03 288.886 331.008 288.886 327.28V38.19C288.886 34.4621 285.864 31.44 282.136 31.44Z" fill="white"/>
</mask>
<g mask="url(#mask0_2_145)">
<path d="M288.886 145.62L141.246 334.04H282.146C283.935 334.037 285.649 333.325 286.913 332.059C288.176 330.794 288.886 329.078 288.886 327.29V145.62Z" fill="#274573"/>
<path opacity="0.5" d="M288.886 145.62L141.246 334.04H282.146C283.935 334.037 285.649 333.325 286.913 332.059C288.176 330.794 288.886 329.078 288.886 327.29V145.62Z" fill="white"/>
</g>
<path d="M282.136 31.44H127.736C124.008 31.44 120.986 34.4621 120.986 38.19V327.28C120.986 331.008 124.008 334.03 127.736 334.03H282.136C285.864 334.03 288.886 331.008 288.886 327.28V38.19C288.886 34.4621 285.864 31.44 282.136 31.44Z" stroke="#263238" stroke-linecap="round" stroke-linejoin="round"/>
<path d="M216.576 49.52H195.676C195.106 49.52 194.559 49.2935 194.156 48.8903C193.753 48.4871 193.526 47.9402 193.526 47.37C193.526 47.0881 193.582 46.809 193.69 46.5487C193.798 46.2885 193.957 46.0521 194.156 45.8532C194.356 45.6544 194.593 45.497 194.854 45.39C195.115 45.2831 195.394 45.2287 195.676 45.23H216.576C217.144 45.23 217.688 45.4555 218.089 45.8568C218.491 46.2581 218.716 46.8024 218.716 47.37C218.717 47.6519 218.663 47.9312 218.556 48.192C218.449 48.4528 218.292 48.6899 218.093 48.8897C217.894 49.0895 217.658 49.248 217.397 49.3562C217.137 49.4643 216.858 49.52 216.576 49.52Z" fill="#263238" stroke="#263238" stroke-linecap="round" stroke-linejoin="round"/>
<path d="M278.276 306.99H131.576V49.77H166.346L170.256 53.01C171.621 54.1465 173.34 54.7692 175.116 54.77H236.466C238.308 54.7626 240.084 54.0875 241.466 52.87L245.006 49.77H278.276V306.99Z" fill="white" stroke="#263238" stroke-linecap="round" stroke-linejoin="round"/>
<path d="M159.116 251.53H250.756" stroke="#263238" stroke-linecap="round" stroke-linejoin="round"/>
<path d="M159.116 263.59H250.756" stroke="#263238" stroke-linecap="round" stroke-linejoin="round"/>
<path d="M159.116 275.65H250.756" stroke="#263238" stroke-linecap="round" stroke-linejoin="round"/>
<path d="M167.576 139.56C161.817 147.905 159.02 157.939 159.632 168.059C160.245 178.18 164.231 187.803 170.955 195.393C177.678 202.982 186.751 208.099 196.724 209.927C206.697 211.755 216.995 210.188 225.973 205.476C234.951 200.765 242.091 193.181 246.253 183.935C250.415 174.69 251.358 164.316 248.933 154.471C246.507 144.626 240.853 135.879 232.872 129.625C224.892 123.371 215.045 119.971 204.906 119.97C202.126 119.97 199.351 120.221 196.616 120.72" stroke="#263238" stroke-linecap="round" stroke-linejoin="round"/>
<path d="M175.306 130.99C173.782 132.309 172.346 133.725 171.006 135.23" stroke="white" stroke-linecap="round" stroke-linejoin="round"/>
<path d="M169.994 150.446C178.214 131.148 200.521 122.167 219.82 130.386C239.117 138.606 248.098 160.913 239.879 180.211C231.66 199.509 209.352 208.491 190.054 200.272C170.756 192.052 161.775 169.744 169.994 150.446Z" fill="white" stroke="black"/>
<path d="M187.166 161.33L201.766 177.92L225.646 144.09" stroke="#274573" stroke-width="6" stroke-linecap="round" stroke-linejoin="round"/>
<path d="M241.506 52.87C240.124 54.0875 238.348 54.7626 236.506 54.77H175.136C173.36 54.7692 171.641 54.1465 170.276 53.01L166.366 49.77H131.576V76.08H278.276V49.77H245.046L241.506 52.87Z" fill="#274573" stroke="#263238" stroke-linecap="round" stroke-linejoin="round"/>
<path d="M209.626 314.92C209.628 314.259 209.434 313.611 209.067 313.061C208.701 312.51 208.18 312.08 207.569 311.826C206.958 311.572 206.286 311.505 205.637 311.634C204.988 311.762 204.392 312.081 203.924 312.548C203.457 313.016 203.138 313.612 203.01 314.261C202.881 314.91 202.948 315.582 203.202 316.193C203.456 316.803 203.886 317.325 204.437 317.691C204.988 318.057 205.635 318.252 206.296 318.25C207.179 318.247 208.024 317.896 208.648 317.272C209.272 316.648 209.624 315.802 209.626 314.92Z" fill="#263238" stroke="#263238" stroke-linecap="round" stroke-linejoin="round"/>
<path d="M74.5962 204.585L61.5162 321.585C61.5162 321.585 51.9262 329.925 52.7662 333.295C53.6062 336.665 64.6762 331.295 66.2062 328.515C67.292 326.201 68.0654 323.753 68.5062 321.235L96.0462 233.235L117.226 327.605C117.226 327.605 126.226 334.995 131.226 334.745C136.226 334.495 134.446 332.525 131.596 328.915C128.746 325.305 122.296 323.245 122.296 323.245L119.116 201.615L74.5962 204.585Z" fill="#263238" stroke="#263238" stroke-linecap="round" stroke-linejoin="round"/>
<path d="M118.398 199.568L74.4552 201.802L74.7598 207.794L118.703 205.561L118.398 199.568Z" fill="#263238" stroke="#263238" stroke-linecap="round" stroke-linejoin="round"/>
<path d="M101.716 203.375C101.786 204.865 99.8962 206.165 97.4762 206.295C95.0562 206.425 93.0162 205.325 93.0162 203.825C93.0162 202.325 94.8462 201.035 97.2562 200.915C99.6662 200.795 101.636 201.895 101.716 203.375Z" fill="white"/>
<path d="M94.1862 141.895L77.6662 146.735L79.7162 201.955L118.466 200.995L113.566 143.915L94.1862 141.895Z" fill="white" stroke="#263238" stroke-linecap="round" stroke-linejoin="round"/>
<path d="M86.9562 142.515L84.7362 236.745L63.6962 226.555L72.9462 196.795L66.6362 146.545L86.9562 142.515Z" fill="#274573" stroke="#263238" stroke-linecap="round" stroke-linejoin="round"/>
<path d="M103.686 141.665L115.446 235.185L135.356 222.915L123.136 194.245L124.316 143.615L103.686 141.665Z" fill="#274573" stroke="#263238" stroke-linecap="round" stroke-linejoin="round"/>
<path d="M91.1662 153.065L94.4462 158.405L91.8262 195.585L98.0462 202.945L101.266 194.105L96.2862 158.475L99.3562 153.315L94.8962 147.535L91.1662 153.065Z" fill="#263238" stroke="#263238" stroke-linecap="round" stroke-linejoin="round"/>
<path d="M95.2262 152.355L89.0362 157.015L84.0762 144.915L86.8662 140.595L102.016 139.825L105.596 144.655L102.646 155.655L95.2262 152.355Z" fill="white" stroke="#263238" stroke-linecap="round" stroke-linejoin="round"/>
<path d="M88.1262 135.945L89.5162 143.635L95.2262 152.355L100.456 142.075L100.126 135.585L88.1262 135.945Z" fill="white" stroke="#263238" stroke-linecap="round" stroke-linejoin="round"/>
<path d="M66.6362 146.545L38.5762 180.515L57.2262 202.595L64.7362 197.715L55.5162 178.905L69.2762 168.945L66.6362 146.545Z" fill="#274573" stroke="#263238" stroke-linecap="round" stroke-linejoin="round"/>
<path d="M64.7362 197.715L65.8562 200.155L59.5362 203.735L58.6862 201.775L64.7362 197.715Z" fill="white" stroke="#263238" stroke-linecap="round" stroke-linejoin="round"/>
<path d="M65.8562 200.155L72.2962 208.595L70.1762 211.205L68.6362 210.535L65.5162 213.195C65.5162 213.195 63.2362 212.555 62.9462 211.825C62.6562 211.095 59.5662 209.235 59.4962 207.995C59.4262 206.755 59.4962 203.735 59.4962 203.735L65.8562 200.155Z" fill="white" stroke="#263238" stroke-linecap="round" stroke-linejoin="round"/>
<path d="M139.946 150.245C140.326 149.253 140.41 148.173 140.186 147.135C139.726 145.945 138.706 141.825 138.906 140.465C139.106 139.105 141.166 137.125 141.346 135.365C141.526 133.605 141.346 131.995 141.346 131.045C141.363 130.785 141.463 130.537 141.632 130.339C141.8 130.14 142.028 130.001 142.282 129.943C142.536 129.884 142.802 129.909 143.041 130.014C143.279 130.119 143.478 130.298 143.606 130.525C144.606 131.685 145.206 132.875 144.726 134.105C144.399 135.48 144.245 136.891 144.266 138.305C144.266 138.305 145.866 140.515 146.746 141.955C147.626 143.395 147.546 147.165 146.956 148.675C146.406 149.818 145.631 150.839 144.676 151.675L144.776 154.275L139.946 150.245Z" fill="white" stroke="#263238" stroke-linecap="round" stroke-linejoin="round"/>
<path d="M142.866 136.225C142.866 136.225 142.166 138.285 143.396 138.755C144.626 139.225 149.656 139.925 149.706 138.305C149.756 136.685 149.856 135.875 149.046 135.915C148.236 135.955 144.466 135.915 144.466 135.915C144.466 135.915 142.716 135.825 142.866 136.225Z" fill="white" stroke="#263238" stroke-linecap="round" stroke-linejoin="round"/>
<path d="M143.436 146.325C143.436 146.325 142.936 147.855 143.826 148.205C144.716 148.555 148.336 149.085 148.366 147.875C148.396 146.665 148.466 146.065 147.886 146.095C147.306 146.125 144.586 146.095 144.586 146.095C144.586 146.095 143.326 146.005 143.436 146.325Z" fill="white" stroke="#263238" stroke-linecap="round" stroke-linejoin="round"/>
<path d="M142.766 143.055C142.766 143.055 142.186 144.835 143.216 145.245C144.246 145.655 148.436 146.245 148.476 144.865C148.516 143.485 148.596 142.765 147.916 142.795C147.236 142.825 144.096 142.795 144.096 142.795C144.096 142.795 142.636 142.715 142.766 143.055Z" fill="white" stroke="#263238" stroke-linecap="round" stroke-linejoin="round"/>
<path d="M142.376 139.885C142.376 139.885 141.676 141.945 142.916 142.415C144.156 142.885 149.166 143.585 149.216 141.965C149.266 140.345 149.366 139.535 148.556 139.575C147.746 139.615 143.976 139.575 143.976 139.575C143.976 139.575 142.226 139.495 142.376 139.885Z" fill="white" stroke="#263238" stroke-linecap="round" stroke-linejoin="round"/>
<path d="M139.376 152.295L140.156 149.155L145.576 152.385L144.666 155.795L139.376 152.295Z" fill="white" stroke="#263238" stroke-linecap="round" stroke-linejoin="round"/>
<path d="M124.316 143.615L134.696 165.705L139.796 151.495L144.796 156.255L139.676 182.595C139.517 183.406 139.123 184.152 138.545 184.743C137.967 185.333 137.228 185.742 136.421 185.918C135.613 186.095 134.772 186.031 134 185.736C133.228 185.44 132.559 184.925 132.076 184.255L123.786 172.685L124.316 143.615Z" fill="#274573" stroke="#263238" stroke-linecap="round" stroke-linejoin="round"/>
<path d="M83.2962 126.965C83.2962 126.965 81.1962 124.725 80.9262 126.365C80.6562 128.005 81.5062 130.835 82.8262 131.845C84.1462 132.855 85.3062 131.185 85.3062 131.185L83.2962 126.965Z" fill="white" stroke="#263238" stroke-linecap="round" stroke-linejoin="round"/>
<path d="M103.146 125.955C103.146 125.955 104.996 123.515 105.446 125.115C105.896 126.715 105.316 129.625 104.106 130.765C102.896 131.905 101.566 130.355 101.566 130.355L103.146 125.955Z" fill="white" stroke="#263238" stroke-linecap="round" stroke-linejoin="round"/>
<path d="M84.1362 129.265L82.1362 125.035C80.5264 122.769 79.4122 120.19 78.8662 117.465C77.8662 112.825 79.5162 108.965 81.6162 107.775C82.7964 107.068 84.1898 106.806 85.5462 107.035C85.5462 107.035 85.9462 104.315 92.5462 102.035C99.1462 99.7549 106.326 103.865 106.216 105.305C106.106 106.745 104.346 107.385 104.346 107.385C104.346 107.385 109.486 109.285 107.626 111.715C106.479 113.199 104.995 114.389 103.296 115.185C103.669 116.41 103.973 117.656 104.206 118.915C104.466 120.525 103.016 127.445 103.016 127.445L99.4662 117.715L88.3262 118.285C88.3262 118.285 87.6662 123.005 86.4862 124.685C85.7329 125.96 85.3133 127.405 85.2662 128.885C85.2662 128.885 84.7462 130.665 84.1362 129.265Z" fill="#263238" stroke="#263238" stroke-linecap="round" stroke-linejoin="round"/>
<path d="M86.1162 111.685C86.0971 114.589 85.8866 117.489 85.4862 120.365C85.2452 121.965 84.4184 123.419 83.1662 124.445C83.1662 124.445 84.5862 131.035 86.3862 134.545C88.1862 138.055 91.9262 140.935 95.6962 140.545C99.4662 140.155 102.476 135.875 102.836 132.255C103.196 128.635 101.426 115.255 101.426 115.255C101.426 115.255 89.6462 117.325 86.1162 111.685Z" fill="white" stroke="#263238" stroke-linecap="round" stroke-linejoin="round"/>
<path d="M87.1162 125.215C87.7166 124.86 88.3946 124.656 89.0914 124.621C89.7883 124.586 90.4832 124.721 91.1162 125.015" stroke="#263238" stroke-linecap="round" stroke-linejoin="round"/>
<path d="M86.9562 122.215C86.9562 122.215 87.1862 120.215 90.5262 120.035" stroke="#263238" stroke-linecap="round" stroke-linejoin="round"/>
<path d="M95.8462 119.595C96.6019 119.285 97.4369 119.226 98.2288 119.426C99.0207 119.626 99.7277 120.074 100.246 120.705" stroke="#263238" stroke-linecap="round" stroke-linejoin="round"/>
<path d="M94.6762 122.825C94.6762 122.825 95.2062 126.825 95.2362 127.315C95.2662 127.805 96.9362 127.895 96.4862 128.915C96.0362 129.935 94.5862 131.015 93.3762 130.245" stroke="#263238" stroke-linecap="round" stroke-linejoin="round"/>
<path d="M96.5562 133.595C96.5562 133.595 95.2862 134.825 92.7262 133.785" stroke="#263238" stroke-linecap="round" stroke-linejoin="round"/>
<path d="M99.0862 124.105C99.0862 124.845 98.7762 125.465 98.3162 125.485C97.8562 125.505 97.4562 124.925 97.4162 124.195C97.3762 123.465 97.7262 122.845 98.1862 122.815C98.6462 122.785 99.0162 123.375 99.0862 124.105Z" fill="#263238"/>
</svg>
