<svg width="274" height="43" viewBox="0 0 274 43" fill="none" xmlns="http://www.w3.org/2000/svg">
<path d="M42.88 31.36C40.76 31.36 38.88 30.9 37.24 29.98C35.62 29.04 34.35 27.76 33.43 26.14C32.51 24.5 32.05 22.63 32.05 20.53C32.05 18.39 32.51 16.51 33.43 14.89C34.35 13.25 35.61 11.97 37.21 11.05C38.83 10.13 40.69 9.67 42.79 9.67C44.91 9.67 46.77 10.14 48.37 11.08C49.99 12 51.26 13.28 52.18 14.92C53.1 16.54 53.56 18.41 53.56 20.53C53.56 22.63 53.1 24.5 52.18 26.14C51.28 27.76 50.02 29.04 48.4 29.98C46.8 30.9 44.96 31.36 42.88 31.36ZM42.88 27.61C44.16 27.61 45.28 27.31 46.24 26.71C47.22 26.09 47.98 25.25 48.52 24.19C49.08 23.13 49.36 21.91 49.36 20.53C49.36 19.13 49.08 17.9 48.52 16.84C47.96 15.78 47.19 14.95 46.21 14.35C45.23 13.73 44.09 13.42 42.79 13.42C41.53 13.42 40.4 13.73 39.4 14.35C38.42 14.95 37.65 15.78 37.09 16.84C36.53 17.9 36.25 19.13 36.25 20.53C36.25 21.91 36.53 23.13 37.09 24.19C37.65 25.25 38.43 26.09 39.43 26.71C40.43 27.31 41.58 27.61 42.88 27.61ZM66.2233 31L65.9833 28.24V16H69.9433V31H66.2233ZM56.0533 23.68V16H60.0133V23.68H56.0533ZM60.0133 23.68C60.0133 24.68 60.1233 25.47 60.3433 26.05C60.5833 26.61 60.9133 27.02 61.3333 27.28C61.7733 27.52 62.2633 27.64 62.8033 27.64C63.8433 27.66 64.6333 27.35 65.1733 26.71C65.7133 26.05 65.9833 25.1 65.9833 23.86H67.3333C67.3333 25.46 67.0933 26.82 66.6133 27.94C66.1333 29.04 65.4733 29.89 64.6333 30.49C63.7933 31.07 62.8033 31.36 61.6633 31.36C60.4633 31.36 59.4433 31.12 58.6033 30.64C57.7633 30.16 57.1233 29.42 56.6833 28.42C56.2633 27.4 56.0533 26.09 56.0533 24.49V23.68H60.0133ZM76.1641 23.11C76.1641 21.49 76.4741 20.15 77.0941 19.09C77.7341 18.03 78.5441 17.24 79.5241 16.72C80.5241 16.2 81.5641 15.94 82.6441 15.94V19.78C81.7241 19.78 80.8541 19.89 80.0341 20.11C79.2341 20.33 78.5841 20.69 78.0841 21.19C77.5841 21.69 77.3341 22.33 77.3341 23.11H76.1641ZM73.3741 31V16H77.3341V31H73.3741ZM101.73 31.36C99.6897 31.36 97.8797 30.9 96.2997 29.98C94.7197 29.04 93.4797 27.76 92.5797 26.14C91.6797 24.5 91.2297 22.62 91.2297 20.5C91.2297 18.38 91.6797 16.51 92.5797 14.89C93.4797 13.25 94.7097 11.97 96.2697 11.05C97.8497 10.11 99.6597 9.64 101.7 9.64C103.14 9.64 104.48 9.9 105.72 10.42C106.96 10.92 108.04 11.63 108.96 12.55C109.9 13.45 110.62 14.49 111.12 15.67L107.31 17.08C106.97 16.34 106.52 15.7 105.96 15.16C105.4 14.6 104.76 14.17 104.04 13.87C103.32 13.55 102.54 13.39 101.7 13.39C100.48 13.39 99.3897 13.7 98.4297 14.32C97.4897 14.92 96.7497 15.75 96.2097 16.81C95.6897 17.87 95.4297 19.1 95.4297 20.5C95.4297 21.9 95.6997 23.14 96.2397 24.22C96.7797 25.28 97.5297 26.12 98.4897 26.74C99.4497 27.34 100.55 27.64 101.79 27.64C102.65 27.64 103.43 27.48 104.13 27.16C104.85 26.82 105.48 26.36 106.02 25.78C106.58 25.2 107.03 24.53 107.37 23.77L111.18 25.15C110.68 26.37 109.96 27.45 109.02 28.39C108.1 29.33 107.02 30.06 105.78 30.58C104.54 31.1 103.19 31.36 101.73 31.36ZM123.528 31L123.288 28.24V16H127.248V31H123.528ZM113.358 23.68V16H117.318V23.68H113.358ZM117.318 23.68C117.318 24.68 117.428 25.47 117.648 26.05C117.888 26.61 118.218 27.02 118.638 27.28C119.078 27.52 119.568 27.64 120.108 27.64C121.148 27.66 121.938 27.35 122.478 26.71C123.018 26.05 123.288 25.1 123.288 23.86H124.638C124.638 25.46 124.398 26.82 123.918 27.94C123.438 29.04 122.778 29.89 121.938 30.49C121.098 31.07 120.108 31.36 118.968 31.36C117.768 31.36 116.748 31.12 115.908 30.64C115.068 30.16 114.428 29.42 113.988 28.42C113.568 27.4 113.358 26.09 113.358 24.49V23.68H117.318ZM136.289 31.36C135.329 31.36 134.429 31.22 133.589 30.94C132.749 30.64 132.009 30.22 131.369 29.68C130.729 29.12 130.229 28.44 129.869 27.64L133.259 26.08C133.559 26.56 133.969 26.98 134.489 27.34C135.009 27.68 135.609 27.85 136.289 27.85C136.949 27.85 137.459 27.76 137.819 27.58C138.179 27.38 138.359 27.1 138.359 26.74C138.359 26.38 138.209 26.12 137.909 25.96C137.629 25.78 137.239 25.63 136.739 25.51L135.359 25.15C133.919 24.77 132.779 24.17 131.939 23.35C131.119 22.51 130.709 21.55 130.709 20.47C130.709 18.93 131.199 17.74 132.179 16.9C133.179 16.06 134.589 15.64 136.409 15.64C137.349 15.64 138.219 15.78 139.019 16.06C139.839 16.34 140.539 16.73 141.119 17.23C141.699 17.73 142.099 18.31 142.319 18.97L139.049 20.47C138.909 20.07 138.569 19.75 138.029 19.51C137.489 19.25 136.949 19.12 136.409 19.12C135.869 19.12 135.449 19.24 135.149 19.48C134.869 19.7 134.729 20.01 134.729 20.41C134.729 20.67 134.869 20.89 135.149 21.07C135.429 21.23 135.829 21.37 136.349 21.49L138.299 21.97C139.279 22.21 140.059 22.6 140.639 23.14C141.239 23.66 141.669 24.25 141.929 24.91C142.209 25.55 142.349 26.18 142.349 26.8C142.349 27.7 142.079 28.5 141.539 29.2C141.019 29.88 140.299 30.41 139.379 30.79C138.479 31.17 137.449 31.36 136.289 31.36ZM150.833 31.36C149.173 31.36 147.913 30.95 147.053 30.13C146.213 29.31 145.793 28.14 145.793 26.62V11.32H149.753V25.75C149.753 26.39 149.893 26.88 150.173 27.22C150.453 27.54 150.863 27.7 151.403 27.7C151.603 27.7 151.823 27.66 152.063 27.58C152.303 27.48 152.553 27.34 152.813 27.16L154.193 30.13C153.713 30.49 153.173 30.78 152.573 31C151.993 31.24 151.413 31.36 150.833 31.36ZM143.363 19.36V16H153.503V19.36H143.363ZM163.51 31.36C161.99 31.36 160.63 31.03 159.43 30.37C158.25 29.69 157.32 28.76 156.64 27.58C155.98 26.4 155.65 25.04 155.65 23.5C155.65 21.96 155.98 20.6 156.64 19.42C157.3 18.24 158.22 17.32 159.4 16.66C160.58 15.98 161.93 15.64 163.45 15.64C164.99 15.64 166.35 15.98 167.53 16.66C168.71 17.32 169.63 18.24 170.29 19.42C170.95 20.6 171.28 21.96 171.28 23.5C171.28 25.04 170.95 26.4 170.29 27.58C169.63 28.76 168.71 29.69 167.53 30.37C166.37 31.03 165.03 31.36 163.51 31.36ZM163.51 27.7C164.25 27.7 164.9 27.52 165.46 27.16C166.02 26.8 166.45 26.31 166.75 25.69C167.07 25.05 167.23 24.32 167.23 23.5C167.23 22.68 167.07 21.96 166.75 21.34C166.43 20.7 165.98 20.2 165.4 19.84C164.84 19.48 164.19 19.3 163.45 19.3C162.73 19.3 162.08 19.48 161.5 19.84C160.94 20.2 160.5 20.7 160.18 21.34C159.86 21.96 159.7 22.68 159.7 23.5C159.7 24.32 159.86 25.05 160.18 25.69C160.5 26.31 160.95 26.8 161.53 27.16C162.11 27.52 162.77 27.7 163.51 27.7ZM173.892 31V16H177.612L177.792 17.95C178.252 17.19 178.842 16.62 179.562 16.24C180.282 15.84 181.082 15.64 181.962 15.64C183.182 15.64 184.202 15.9 185.022 16.42C185.862 16.94 186.472 17.74 186.852 18.82C187.292 17.8 187.912 17.02 188.712 16.48C189.512 15.92 190.442 15.64 191.502 15.64C193.262 15.64 194.602 16.2 195.522 17.32C196.442 18.42 196.902 20.12 196.902 22.42V31H192.942V23.32C192.942 22.3 192.832 21.51 192.612 20.95C192.392 20.39 192.092 19.99 191.712 19.75C191.332 19.49 190.882 19.36 190.362 19.36C189.402 19.34 188.662 19.65 188.142 20.29C187.622 20.93 187.362 21.88 187.362 23.14V31H183.402V23.32C183.402 22.3 183.292 21.51 183.072 20.95C182.872 20.39 182.572 19.99 182.172 19.75C181.792 19.49 181.342 19.36 180.822 19.36C179.862 19.34 179.122 19.65 178.602 20.29C178.102 20.93 177.852 21.88 177.852 23.14V31H173.892ZM206.834 31.36C205.354 31.36 204.044 31.03 202.904 30.37C201.764 29.69 200.864 28.76 200.204 27.58C199.564 26.4 199.244 25.04 199.244 23.5C199.244 21.96 199.574 20.6 200.234 19.42C200.914 18.24 201.834 17.32 202.994 16.66C204.174 15.98 205.524 15.64 207.044 15.64C208.364 15.64 209.574 15.99 210.674 16.69C211.794 17.37 212.684 18.38 213.344 19.72C214.024 21.04 214.364 22.65 214.364 24.55H202.994L203.354 24.19C203.354 24.93 203.534 25.58 203.894 26.14C204.274 26.68 204.754 27.1 205.334 27.4C205.934 27.68 206.574 27.82 207.254 27.82C208.074 27.82 208.744 27.65 209.264 27.31C209.784 26.95 210.184 26.49 210.464 25.93L214.004 27.31C213.584 28.15 213.034 28.88 212.354 29.5C211.694 30.1 210.904 30.56 209.984 30.88C209.064 31.2 208.014 31.36 206.834 31.36ZM203.564 21.97L203.204 21.61H210.434L210.104 21.97C210.104 21.25 209.934 20.68 209.594 20.26C209.254 19.82 208.834 19.5 208.334 19.3C207.854 19.1 207.384 19 206.924 19C206.464 19 205.974 19.1 205.454 19.3C204.934 19.5 204.484 19.82 204.104 20.26C203.744 20.68 203.564 21.25 203.564 21.97ZM219.455 23.11C219.455 21.49 219.765 20.15 220.385 19.09C221.025 18.03 221.835 17.24 222.815 16.72C223.815 16.2 224.855 15.94 225.935 15.94V19.78C225.015 19.78 224.145 19.89 223.325 20.11C222.525 20.33 221.875 20.69 221.375 21.19C220.875 21.69 220.625 22.33 220.625 23.11H219.455ZM216.665 31V16H220.625V31H216.665ZM233.642 31.36C232.682 31.36 231.782 31.22 230.942 30.94C230.102 30.64 229.362 30.22 228.722 29.68C228.082 29.12 227.582 28.44 227.222 27.64L230.612 26.08C230.912 26.56 231.322 26.98 231.842 27.34C232.362 27.68 232.962 27.85 233.642 27.85C234.302 27.85 234.812 27.76 235.172 27.58C235.532 27.38 235.712 27.1 235.712 26.74C235.712 26.38 235.562 26.12 235.262 25.96C234.982 25.78 234.592 25.63 234.092 25.51L232.712 25.15C231.272 24.77 230.132 24.17 229.292 23.35C228.472 22.51 228.062 21.55 228.062 20.47C228.062 18.93 228.552 17.74 229.532 16.9C230.532 16.06 231.942 15.64 233.762 15.64C234.702 15.64 235.572 15.78 236.372 16.06C237.192 16.34 237.892 16.73 238.472 17.23C239.052 17.73 239.452 18.31 239.672 18.97L236.402 20.47C236.262 20.07 235.922 19.75 235.382 19.51C234.842 19.25 234.302 19.12 233.762 19.12C233.222 19.12 232.802 19.24 232.502 19.48C232.222 19.7 232.082 20.01 232.082 20.41C232.082 20.67 232.222 20.89 232.502 21.07C232.782 21.23 233.182 21.37 233.702 21.49L235.652 21.97C236.632 22.21 237.412 22.6 237.992 23.14C238.592 23.66 239.022 24.25 239.282 24.91C239.562 25.55 239.702 26.18 239.702 26.8C239.702 27.7 239.432 28.5 238.892 29.2C238.372 29.88 237.652 30.41 236.732 30.79C235.832 31.17 234.802 31.36 233.642 31.36Z" fill="#1A1A1A"/>
<g clip-path="url(#clip0_6_23)">
<path d="M5.89212 33.9071C5.78345 33.543 5.9842 33.1507 6.35414 33.0322L10.7446 31.6809C11.1087 31.5723 11.501 31.773 11.6195 32.143C11.7301 32.5149 11.5274 32.8993 11.1575 33.0178L6.76701 34.3691C6.39509 34.4797 6.01061 34.277 5.89212 33.9071Z" fill="#DA9222"/>
<path d="M8.23055 23.4717C8.23055 23.8998 7.87515 24.239 7.44707 24.2309L2.37476 24.1582C1.94668 24.1582 1.60745 23.8029 1.61553 23.3748C1.61553 22.9467 1.97092 22.6075 2.399 22.6155L7.4713 22.6882C7.89937 22.6882 8.23863 23.0436 8.23055 23.4717Z" fill="#53BFBF"/>
<path d="M11.4296 12.2696C11.26 12.7946 10.6865 13.0773 10.1615 12.9076L3.91804 10.84C3.39304 10.6703 3.11035 10.0969 3.27996 9.57188C3.44958 9.04688 4.02305 8.76419 4.54805 8.9338L10.7915 11.0015C11.3165 11.1711 11.5992 11.7446 11.4296 12.2696Z" fill="#392BF6"/>
<path d="M20.9433 5.97854C20.6289 6.39389 20.0345 6.47039 19.6191 6.15597L14.6808 2.40017C14.2655 2.08575 14.189 1.49132 14.5033 1.07596C14.8178 0.660596 15.4122 0.584101 15.8275 0.898523L20.7659 4.65432C21.1813 4.96874 21.2577 5.56317 20.9433 5.97854Z" fill="#CE1054"/>
<path d="M15.4517 39.8951C15.247 39.608 15.3149 39.1944 15.6087 38.9942L19.0944 36.536C19.3815 36.3312 19.7951 36.3992 19.9952 36.693C20.2 36.9801 20.132 37.3936 19.8382 37.5938L16.3525 40.0521C16.0654 40.2568 15.6519 40.1889 15.4517 39.8951Z" fill="#4DBA41"/>
</g>
<g clip-path="url(#clip1_6_23)">
<path d="M267.954 8.11116C268.063 8.47539 267.862 8.86746 267.491 8.98552L263.099 10.3318C262.735 10.44 262.343 10.2388 262.225 9.86867C262.115 9.49668 262.318 9.11246 262.688 8.99439L267.08 7.64816C267.452 7.53793 267.836 7.7411 267.954 8.11116Z" fill="#DA9222"/>
<path d="M265.604 18.5439C265.605 18.1158 265.96 17.777 266.388 17.7855L271.461 17.864C271.889 17.8645 272.228 18.2203 272.219 18.6484C272.218 19.0764 271.863 19.4153 271.435 19.4067L266.362 19.3282C265.934 19.3277 265.595 18.9719 265.604 18.5439Z" fill="#53BFBF"/>
<path d="M262.392 29.7423C262.562 29.2175 263.136 28.9355 263.661 29.1057L269.902 31.1806C270.427 31.3508 270.709 31.9246 270.539 32.4494C270.368 32.9742 269.795 33.2562 269.27 33.086L263.029 31.0111C262.504 30.8409 262.222 30.2671 262.392 29.7423Z" fill="#392BF6"/>
<path d="M252.871 36.0224C253.186 35.6074 253.781 35.5316 254.196 35.8465L259.13 39.608C259.545 39.9229 259.62 40.5174 259.306 40.9324C258.991 41.3474 258.396 41.4232 257.981 41.1083L253.047 37.3469C252.632 37.032 252.556 36.4374 252.871 36.0224Z" fill="#CE1054"/>
<path d="M258.402 2.11222C258.606 2.39951 258.538 2.81305 258.244 3.01286L254.755 5.46715C254.468 5.67157 254.054 5.60309 253.855 5.30911C253.65 5.02174 253.719 4.60828 254.013 4.40847L257.501 1.95418C257.788 1.74975 258.202 1.81815 258.402 2.11222Z" fill="#4DBA41"/>
</g>
<defs>
<clipPath id="clip0_6_23">
<rect width="21.8077" height="42" fill="white"/>
</clipPath>
<clipPath id="clip1_6_23">
<rect width="21.8077" height="42" fill="white" transform="translate(273.808 42.025) rotate(-179.934)"/>
</clipPath>
</defs>
</svg>
