<svg width="356" height="44" viewBox="0 0 356 44" fill="none" xmlns="http://www.w3.org/2000/svg">
<path d="M42.88 31.36C40.76 31.36 38.88 30.9 37.24 29.98C35.62 29.04 34.35 27.76 33.43 26.14C32.51 24.5 32.05 22.63 32.05 20.53C32.05 18.39 32.51 16.51 33.43 14.89C34.35 13.25 35.61 11.97 37.21 11.05C38.83 10.13 40.69 9.67 42.79 9.67C44.91 9.67 46.77 10.14 48.37 11.08C49.99 12 51.26 13.28 52.18 14.92C53.1 16.54 53.56 18.41 53.56 20.53C53.56 22.63 53.1 24.5 52.18 26.14C51.28 27.76 50.02 29.04 48.4 29.98C46.8 30.9 44.96 31.36 42.88 31.36ZM42.88 27.61C44.16 27.61 45.28 27.31 46.24 26.71C47.22 26.09 47.98 25.25 48.52 24.19C49.08 23.13 49.36 21.91 49.36 20.53C49.36 19.13 49.08 17.9 48.52 16.84C47.96 15.78 47.19 14.95 46.21 14.35C45.23 13.73 44.09 13.42 42.79 13.42C41.53 13.42 40.4 13.73 39.4 14.35C38.42 14.95 37.65 15.78 37.09 16.84C36.53 17.9 36.25 19.13 36.25 20.53C36.25 21.91 36.53 23.13 37.09 24.19C37.65 25.25 38.43 26.09 39.43 26.71C40.43 27.31 41.58 27.61 42.88 27.61ZM66.2233 31L65.9833 28.24V16H69.9433V31H66.2233ZM56.0533 23.68V16H60.0133V23.68H56.0533ZM60.0133 23.68C60.0133 24.68 60.1233 25.47 60.3433 26.05C60.5833 26.61 60.9133 27.02 61.3333 27.28C61.7733 27.52 62.2633 27.64 62.8033 27.64C63.8433 27.66 64.6333 27.35 65.1733 26.71C65.7133 26.05 65.9833 25.1 65.9833 23.86H67.3333C67.3333 25.46 67.0933 26.82 66.6133 27.94C66.1333 29.04 65.4733 29.89 64.6333 30.49C63.7933 31.07 62.8033 31.36 61.6633 31.36C60.4633 31.36 59.4433 31.12 58.6033 30.64C57.7633 30.16 57.1233 29.42 56.6833 28.42C56.2633 27.4 56.0533 26.09 56.0533 24.49V23.68H60.0133ZM76.1641 23.11C76.1641 21.49 76.4741 20.15 77.0941 19.09C77.7341 18.03 78.5441 17.24 79.5241 16.72C80.5241 16.2 81.5641 15.94 82.6441 15.94V19.78C81.7241 19.78 80.8541 19.89 80.0341 20.11C79.2341 20.33 78.5841 20.69 78.0841 21.19C77.5841 21.69 77.3341 22.33 77.3341 23.11H76.1641ZM73.3741 31V16H77.3341V31H73.3741ZM92.4597 31V10H99.5697C101.01 10 102.27 10.22 103.35 10.66C104.43 11.1 105.27 11.77 105.87 12.67C106.47 13.55 106.77 14.65 106.77 15.97C106.77 16.79 106.56 17.55 106.14 18.25C105.74 18.93 105.17 19.52 104.43 20.02C105.41 20.52 106.16 21.19 106.68 22.03C107.22 22.85 107.49 23.84 107.49 25C107.49 26.28 107.2 27.37 106.62 28.27C106.04 29.17 105.23 29.85 104.19 30.31C103.15 30.77 101.93 31 100.53 31H92.4597ZM96.4797 27.37H100.14C101.12 27.37 101.89 27.13 102.45 26.65C103.01 26.15 103.29 25.49 103.29 24.67C103.29 23.81 102.98 23.14 102.36 22.66C101.74 22.16 100.89 21.91 99.8097 21.91H96.4797V27.37ZM96.4797 18.55H99.6597C100.56 18.55 101.27 18.32 101.79 17.86C102.31 17.4 102.57 16.75 102.57 15.91C102.57 15.07 102.28 14.42 101.7 13.96C101.12 13.5 100.33 13.27 99.3297 13.27H96.4797V18.55ZM119.319 31L119.199 27.97V23.41C119.199 22.51 119.099 21.74 118.899 21.1C118.719 20.46 118.419 19.97 117.999 19.63C117.599 19.27 117.049 19.09 116.349 19.09C115.709 19.09 115.129 19.23 114.609 19.51C114.089 19.79 113.649 20.22 113.289 20.8L109.809 19.6C110.089 18.96 110.499 18.34 111.039 17.74C111.579 17.12 112.279 16.62 113.139 16.24C114.019 15.84 115.089 15.64 116.349 15.64C117.869 15.64 119.129 15.93 120.129 16.51C121.149 17.09 121.899 17.91 122.379 18.97C122.879 20.01 123.119 21.25 123.099 22.69L123.009 31H119.319ZM115.119 31.36C113.319 31.36 111.919 30.96 110.919 30.16C109.939 29.36 109.449 28.23 109.449 26.77C109.449 25.17 109.979 23.97 111.039 23.17C112.119 22.35 113.629 21.94 115.569 21.94H119.379V24.88H116.949C115.649 24.88 114.749 25.04 114.249 25.36C113.749 25.66 113.499 26.09 113.499 26.65C113.499 27.09 113.699 27.44 114.099 27.7C114.499 27.94 115.059 28.06 115.779 28.06C116.439 28.06 117.019 27.91 117.519 27.61C118.039 27.29 118.449 26.89 118.749 26.41C119.049 25.91 119.199 25.4 119.199 24.88H120.159C120.159 26.92 119.769 28.51 118.989 29.65C118.229 30.79 116.939 31.36 115.119 31.36ZM126.255 31V16H129.975L130.215 18.76V31H126.255ZM136.185 31V23.32H140.145V31H136.185ZM136.185 23.32C136.185 22.3 136.065 21.51 135.825 20.95C135.605 20.39 135.285 19.99 134.865 19.75C134.445 19.49 133.955 19.36 133.395 19.36C132.375 19.34 131.585 19.65 131.025 20.29C130.485 20.93 130.215 21.88 130.215 23.14H128.895C128.895 21.54 129.125 20.19 129.585 19.09C130.065 17.97 130.725 17.12 131.565 16.54C132.425 15.94 133.425 15.64 134.565 15.64C135.745 15.64 136.755 15.88 137.595 16.36C138.435 16.84 139.075 17.59 139.515 18.61C139.955 19.61 140.165 20.91 140.145 22.51V23.32H136.185ZM147.086 27.19L144.716 24.46L152.396 16H157.106L147.086 27.19ZM143.306 31V10H147.266V31H143.306ZM152.906 31L147.926 23.74L150.506 21.01L157.556 31H152.906ZM159.688 31V16H163.648V31H159.688ZM161.668 13.57C161.068 13.57 160.538 13.35 160.078 12.91C159.618 12.45 159.388 11.91 159.388 11.29C159.388 10.67 159.618 10.14 160.078 9.7C160.538 9.24 161.068 9.01 161.668 9.01C162.288 9.01 162.818 9.24 163.258 9.7C163.718 10.14 163.948 10.67 163.948 11.29C163.948 11.91 163.718 12.45 163.258 12.91C162.818 13.35 162.288 13.57 161.668 13.57ZM167.3 31V16H171.02L171.26 18.76V31H167.3ZM177.23 31V23.32H181.19V31H177.23ZM177.23 23.32C177.23 22.3 177.11 21.51 176.87 20.95C176.65 20.39 176.33 19.99 175.91 19.75C175.49 19.49 175 19.36 174.44 19.36C173.42 19.34 172.63 19.65 172.07 20.29C171.53 20.93 171.26 21.88 171.26 23.14H169.94C169.94 21.54 170.17 20.19 170.63 19.09C171.11 17.97 171.77 17.12 172.61 16.54C173.47 15.94 174.47 15.64 175.61 15.64C176.79 15.64 177.8 15.88 178.64 16.36C179.48 16.84 180.12 17.59 180.56 18.61C181 19.61 181.21 20.91 181.19 22.51V23.32H177.23ZM191.101 37.39C189.961 37.39 188.951 37.31 188.071 37.15C187.191 36.99 186.451 36.78 185.851 36.52C185.251 36.26 184.761 36 184.381 35.74L185.941 32.56C186.221 32.72 186.591 32.9 187.051 33.1C187.511 33.32 188.061 33.5 188.701 33.64C189.341 33.8 190.081 33.88 190.921 33.88C191.721 33.88 192.421 33.72 193.021 33.4C193.641 33.1 194.121 32.62 194.461 31.96C194.821 31.32 195.001 30.5 195.001 29.5V16H198.961V29.38C198.961 31.06 198.641 32.5 198.001 33.7C197.361 34.92 196.451 35.84 195.271 36.46C194.111 37.08 192.721 37.39 191.101 37.39ZM190.321 30.58C188.941 30.58 187.741 30.28 186.721 29.68C185.721 29.08 184.941 28.24 184.381 27.16C183.821 26.08 183.541 24.8 183.541 23.32C183.541 21.76 183.821 20.41 184.381 19.27C184.941 18.11 185.721 17.22 186.721 16.6C187.741 15.96 188.941 15.64 190.321 15.64C191.521 15.64 192.561 15.96 193.441 16.6C194.321 17.22 195.001 18.11 195.481 19.27C195.961 20.43 196.201 21.81 196.201 23.41C196.201 24.85 195.961 26.11 195.481 27.19C195.001 28.27 194.321 29.11 193.441 29.71C192.561 30.29 191.521 30.58 190.321 30.58ZM191.461 27.25C192.141 27.25 192.731 27.08 193.231 26.74C193.751 26.38 194.151 25.9 194.431 25.3C194.711 24.68 194.851 23.98 194.851 23.2C194.851 22.4 194.701 21.7 194.401 21.1C194.121 20.5 193.721 20.03 193.201 19.69C192.701 19.35 192.111 19.18 191.431 19.18C190.731 19.18 190.111 19.35 189.571 19.69C189.031 20.03 188.611 20.5 188.311 21.1C188.011 21.7 187.851 22.4 187.831 23.2C187.851 23.98 188.011 24.68 188.311 25.3C188.611 25.9 189.031 26.38 189.571 26.74C190.131 27.08 190.761 27.25 191.461 27.25ZM210.087 31V10H217.887C219.367 10 220.677 10.3 221.817 10.9C222.957 11.48 223.847 12.3 224.487 13.36C225.127 14.4 225.447 15.61 225.447 16.99C225.447 18.35 225.137 19.56 224.517 20.62C223.897 21.68 223.047 22.52 221.967 23.14C220.887 23.74 219.637 24.04 218.217 24.04H214.197V31H210.087ZM214.197 20.26H218.127C219.047 20.26 219.797 19.96 220.377 19.36C220.977 18.74 221.277 17.95 221.277 16.99C221.277 16.03 220.947 15.25 220.287 14.65C219.647 14.05 218.817 13.75 217.797 13.75H214.197V20.26ZM236.36 31L236.24 27.97V23.41C236.24 22.51 236.14 21.74 235.94 21.1C235.76 20.46 235.46 19.97 235.04 19.63C234.64 19.27 234.09 19.09 233.39 19.09C232.75 19.09 232.17 19.23 231.65 19.51C231.13 19.79 230.69 20.22 230.33 20.8L226.85 19.6C227.13 18.96 227.54 18.34 228.08 17.74C228.62 17.12 229.32 16.62 230.18 16.24C231.06 15.84 232.13 15.64 233.39 15.64C234.91 15.64 236.17 15.93 237.17 16.51C238.19 17.09 238.94 17.91 239.42 18.97C239.92 20.01 240.16 21.25 240.14 22.69L240.05 31H236.36ZM232.16 31.36C230.36 31.36 228.96 30.96 227.96 30.16C226.98 29.36 226.49 28.23 226.49 26.77C226.49 25.17 227.02 23.97 228.08 23.17C229.16 22.35 230.67 21.94 232.61 21.94H236.42V24.88H233.99C232.69 24.88 231.79 25.04 231.29 25.36C230.79 25.66 230.54 26.09 230.54 26.65C230.54 27.09 230.74 27.44 231.14 27.7C231.54 27.94 232.1 28.06 232.82 28.06C233.48 28.06 234.06 27.91 234.56 27.61C235.08 27.29 235.49 26.89 235.79 26.41C236.09 25.91 236.24 25.4 236.24 24.88H237.2C237.2 26.92 236.81 28.51 236.03 29.65C235.27 30.79 233.98 31.36 232.16 31.36ZM246.086 23.11C246.086 21.49 246.396 20.15 247.016 19.09C247.656 18.03 248.466 17.24 249.446 16.72C250.446 16.2 251.486 15.94 252.566 15.94V19.78C251.646 19.78 250.776 19.89 249.956 20.11C249.156 20.33 248.506 20.69 248.006 21.19C247.506 21.69 247.256 22.33 247.256 23.11H246.086ZM243.296 31V16H247.256V31H243.296ZM260.843 31.36C259.183 31.36 257.923 30.95 257.063 30.13C256.223 29.31 255.803 28.14 255.803 26.62V11.32H259.763V25.75C259.763 26.39 259.903 26.88 260.183 27.22C260.463 27.54 260.873 27.7 261.413 27.7C261.613 27.7 261.833 27.66 262.073 27.58C262.313 27.48 262.563 27.34 262.823 27.16L264.203 30.13C263.723 30.49 263.183 30.78 262.583 31C262.003 31.24 261.423 31.36 260.843 31.36ZM253.373 19.36V16H263.513V19.36H253.373ZM266.733 31V16H270.453L270.693 18.76V31H266.733ZM276.663 31V23.32H280.623V31H276.663ZM276.663 23.32C276.663 22.3 276.543 21.51 276.303 20.95C276.083 20.39 275.763 19.99 275.343 19.75C274.923 19.49 274.433 19.36 273.873 19.36C272.853 19.34 272.063 19.65 271.503 20.29C270.963 20.93 270.693 21.88 270.693 23.14H269.373C269.373 21.54 269.603 20.19 270.063 19.09C270.543 17.97 271.203 17.12 272.043 16.54C272.903 15.94 273.903 15.64 275.043 15.64C276.223 15.64 277.233 15.88 278.073 16.36C278.913 16.84 279.553 17.59 279.993 18.61C280.433 19.61 280.643 20.91 280.623 22.51V23.32H276.663ZM290.564 31.36C289.084 31.36 287.774 31.03 286.634 30.37C285.494 29.69 284.594 28.76 283.934 27.58C283.294 26.4 282.974 25.04 282.974 23.5C282.974 21.96 283.304 20.6 283.964 19.42C284.644 18.24 285.564 17.32 286.724 16.66C287.904 15.98 289.254 15.64 290.774 15.64C292.094 15.64 293.304 15.99 294.404 16.69C295.524 17.37 296.414 18.38 297.074 19.72C297.754 21.04 298.094 22.65 298.094 24.55H286.724L287.084 24.19C287.084 24.93 287.264 25.58 287.624 26.14C288.004 26.68 288.484 27.1 289.064 27.4C289.664 27.68 290.304 27.82 290.984 27.82C291.804 27.82 292.474 27.65 292.994 27.31C293.514 26.95 293.914 26.49 294.194 25.93L297.734 27.31C297.314 28.15 296.764 28.88 296.084 29.5C295.424 30.1 294.634 30.56 293.714 30.88C292.794 31.2 291.744 31.36 290.564 31.36ZM287.294 21.97L286.934 21.61H294.164L293.834 21.97C293.834 21.25 293.664 20.68 293.324 20.26C292.984 19.82 292.564 19.5 292.064 19.3C291.584 19.1 291.114 19 290.654 19C290.194 19 289.704 19.1 289.184 19.3C288.664 19.5 288.214 19.82 287.834 20.26C287.474 20.68 287.294 21.25 287.294 21.97ZM303.186 23.11C303.186 21.49 303.496 20.15 304.116 19.09C304.756 18.03 305.566 17.24 306.546 16.72C307.546 16.2 308.586 15.94 309.666 15.94V19.78C308.746 19.78 307.876 19.89 307.056 20.11C306.256 20.33 305.606 20.69 305.106 21.19C304.606 21.69 304.356 22.33 304.356 23.11H303.186ZM300.396 31V16H304.356V31H300.396ZM317.373 31.36C316.413 31.36 315.513 31.22 314.673 30.94C313.833 30.64 313.093 30.22 312.453 29.68C311.813 29.12 311.313 28.44 310.953 27.64L314.343 26.08C314.643 26.56 315.053 26.98 315.573 27.34C316.093 27.68 316.693 27.85 317.373 27.85C318.033 27.85 318.543 27.76 318.903 27.58C319.263 27.38 319.443 27.1 319.443 26.74C319.443 26.38 319.293 26.12 318.993 25.96C318.713 25.78 318.323 25.63 317.823 25.51L316.443 25.15C315.003 24.77 313.863 24.17 313.023 23.35C312.203 22.51 311.793 21.55 311.793 20.47C311.793 18.93 312.283 17.74 313.263 16.9C314.263 16.06 315.673 15.64 317.493 15.64C318.433 15.64 319.303 15.78 320.103 16.06C320.923 16.34 321.623 16.73 322.203 17.23C322.783 17.73 323.183 18.31 323.403 18.97L320.133 20.47C319.993 20.07 319.653 19.75 319.113 19.51C318.573 19.25 318.033 19.12 317.493 19.12C316.953 19.12 316.533 19.24 316.233 19.48C315.953 19.7 315.813 20.01 315.813 20.41C315.813 20.67 315.953 20.89 316.233 21.07C316.513 21.23 316.913 21.37 317.433 21.49L319.383 21.97C320.363 22.21 321.143 22.6 321.723 23.14C322.323 23.66 322.753 24.25 323.013 24.91C323.293 25.55 323.433 26.18 323.433 26.8C323.433 27.7 323.163 28.5 322.623 29.2C322.103 29.88 321.383 30.41 320.463 30.79C319.563 31.17 318.533 31.36 317.373 31.36Z" fill="#1A1A1A"/>
<g clip-path="url(#clip0_2_22)">
<path d="M5.89212 33.9071C5.78345 33.543 5.9842 33.1507 6.35414 33.0322L10.7446 31.6809C11.1087 31.5723 11.501 31.773 11.6195 32.143C11.7301 32.5149 11.5274 32.8993 11.1575 33.0178L6.76701 34.3691C6.39509 34.4797 6.01061 34.277 5.89212 33.9071Z" fill="#DA9222"/>
<path d="M8.23055 23.4717C8.23055 23.8998 7.87515 24.239 7.44707 24.2309L2.37476 24.1582C1.94668 24.1582 1.60745 23.8029 1.61553 23.3748C1.61553 22.9467 1.97092 22.6075 2.399 22.6155L7.4713 22.6882C7.89937 22.6882 8.23863 23.0436 8.23055 23.4717Z" fill="#53BFBF"/>
<path d="M11.4296 12.2696C11.26 12.7946 10.6865 13.0773 10.1615 12.9076L3.91804 10.84C3.39304 10.6703 3.11035 10.0969 3.27996 9.57188C3.44958 9.04688 4.02305 8.76419 4.54805 8.9338L10.7915 11.0015C11.3165 11.1711 11.5992 11.7446 11.4296 12.2696Z" fill="#392BF6"/>
<path d="M20.9433 5.97854C20.6289 6.39389 20.0345 6.47039 19.6191 6.15597L14.6808 2.40017C14.2655 2.08575 14.189 1.49132 14.5033 1.07596C14.8178 0.660596 15.4122 0.584101 15.8275 0.898523L20.7659 4.65432C21.1813 4.96874 21.2577 5.56317 20.9433 5.97854Z" fill="#CE1054"/>
<path d="M15.4517 39.8951C15.247 39.608 15.3149 39.1944 15.6087 38.9942L19.0944 36.536C19.3815 36.3312 19.7951 36.3992 19.9952 36.693C20.2 36.9801 20.132 37.3936 19.8382 37.5938L16.3525 40.0521C16.0654 40.2568 15.6519 40.1889 15.4517 39.8951Z" fill="#4DBA41"/>
</g>
<g clip-path="url(#clip1_2_22)">
<path d="M349.93 9.09866C350.039 9.4629 349.837 9.85496 349.467 9.97303L345.075 11.3193C344.711 11.4275 344.319 11.2263 344.201 10.8562C344.091 10.4842 344.294 10.1 344.664 9.98189L349.056 8.63566C349.428 8.52543 349.812 8.7286 349.93 9.09866Z" fill="#DA9222"/>
<path d="M347.58 19.5314C347.58 19.1033 347.936 18.7645 348.364 18.773L353.437 18.8515C353.865 18.852 354.203 19.2078 354.195 19.6359C354.194 20.064 353.839 20.4028 353.411 20.3942L348.338 20.3157C347.91 20.3152 347.571 19.9594 347.58 19.5314Z" fill="#53BFBF"/>
<path d="M344.368 30.7298C344.538 30.205 345.112 29.923 345.637 30.0932L351.878 32.1681C352.403 32.3383 352.685 32.9121 352.515 33.4369C352.344 33.9617 351.771 34.2437 351.246 34.0735L345.005 31.9986C344.48 31.8284 344.198 31.2546 344.368 30.7298Z" fill="#392BF6"/>
<path d="M334.847 37.0099C335.162 36.595 335.757 36.5191 336.172 36.834L341.106 40.5955C341.521 40.9104 341.596 41.5049 341.282 41.9199C340.967 42.3349 340.372 42.4107 339.957 42.0958L335.023 38.3344C334.608 38.0195 334.532 37.4249 334.847 37.0099Z" fill="#CE1054"/>
<path d="M340.378 3.09972C340.582 3.38701 340.514 3.80056 340.22 4.00037L336.731 6.45466C336.444 6.65908 336.03 6.5906 335.83 6.29661C335.626 6.00924 335.695 5.59578 335.989 5.39597L339.477 2.94168C339.764 2.73726 340.178 2.80566 340.378 3.09972Z" fill="#4DBA41"/>
</g>
<defs>
<clipPath id="clip0_2_22">
<rect width="21.8077" height="42" fill="white"/>
</clipPath>
<clipPath id="clip1_2_22">
<rect width="21.8077" height="42" fill="white" transform="translate(355.784 43.0125) rotate(-179.934)"/>
</clipPath>
</defs>
</svg>
