<svg width="336" height="22" viewBox="0 0 336 22" fill="none" xmlns="http://www.w3.org/2000/svg">
<path d="M335.685 15.4721C336.314 10.9164 329.317 11.5755 327.076 10.362C300.709 4.38734 252.283 2.473 225.599 1.93607C204.035 1.60528 182.479 0.468858 160.922 0.869252C145.015 0.715977 129.176 2.42691 113.273 2.55124C79.7894 3.80364 46.1364 5.04289 13.128 11.942C9.7192 13.0305 6.05627 13.301 2.82764 15.0457C-5.2804 22.9594 10.363 22.2635 13.7751 21.3049C112.629 6.44642 113.962 6.97815 189.611 6.77005C223.065 6.52838 256.496 10.3848 308.064 15.7879C309.378 15.9549 310.539 14.4198 310.259 12.7449C315.318 13.4006 320.365 14.2437 325.392 15.2731C328.005 15.9698 330.628 16.6309 333.224 17.4339C333.762 17.5866 334.32 17.4672 334.78 17.1011C335.24 16.7351 335.565 16.1516 335.685 15.4756L335.685 15.4721Z" fill="#FF914D"/>
</svg>
