<svg width="325" height="39" viewBox="0 0 325 39" fill="none" xmlns="http://www.w3.org/2000/svg">
<path d="M1.13626 22.6622C3.66793 20.8473 5.73869 18.1627 20.7338 14.7371C25.8636 13.5973 30.982 12.3634 36.1141 11.2707C74.4355 4.34409 77.7698 4.60156 106.042 1.67518C121.187 0.438069 136.37 0.347012 151.535 0.00162486C162.228 -0.0329139 172.923 0.491447 183.614 0.786596C241.184 4.25617 221.151 2.41306 261.263 7.27046C278.547 10.4637 295.789 14.1343 313.059 17.4877C315.635 18.2444 318.249 18.797 320.79 19.7547C323.601 20.8285 323.707 20.7845 324.108 21.2869C325.94 23.1018 324.791 27.6106 322.108 26.7817C314.314 23.8082 314.706 24.0908 281.276 17.4688C280.299 18.8755 279.604 18.5301 277.052 18.4453C274.027 18.3448 271.002 18.2789 267.98 18.0936C255.709 16.8974 243.47 15.0731 231.207 13.7135C226.985 13.3053 222.768 12.7339 218.546 12.2378C213.223 11.8735 207.899 11.5187 202.574 11.1702C174.991 10.492 182.976 10.1874 148.764 10.6929C143.394 11.0038 148.404 10.6364 119.934 12.8595C97.7801 15.6477 73.8599 21.6323 52.1894 27.3406C42.8171 29.8243 25.4348 34.6252 16.3447 38.8891C15.4709 39.2188 14.4459 38.8043 13.9345 37.765C13.2076 36.597 13.3245 34.7193 14.1134 33.6424C14.8587 32.6627 15.98 32.5622 16.9065 32.0473C21.009 30.2105 27.04 28.2512 31.5072 26.8477L25.5082 27.8775C20.2293 28.8603 14.8954 29.1084 9.60728 29.997C7.13065 30.2984 3.77572 30.5653 1.7325 28.6185C1.21424 28.135 0.618005 27.7551 0.308426 26.9638C-0.324492 25.5226 0.0492788 23.4911 1.13166 22.6685L1.13626 22.6622ZM112.789 7.46513C104.157 7.90472 77.4763 10.8719 67.6958 12.1561C57.1587 13.8862 46.6238 15.6194 36.105 17.5536C30.544 19.0513 19.1056 21.0734 12.7787 23.2493C15.5007 22.8883 18.2296 22.6308 20.9539 22.2885C51.5587 17.2961 82.136 11.9206 112.789 7.46513Z" fill="#FF914D"/>
</svg>
