<svg width="336" height="24" viewBox="0 0 336 24" fill="none" xmlns="http://www.w3.org/2000/svg">
<path d="M335.668 19.1249C336.26 13.7571 329.266 14.4755 327.013 13.0254C300.585 5.75634 252.124 3.0904 225.425 2.23225C203.85 1.6604 182.275 0.138386 160.714 0.428974C144.799 0.114145 128.968 1.99862 113.06 2.01125C79.5735 3.20622 45.9176 4.38426 12.9543 12.2432C9.55332 13.4983 5.89122 13.7865 2.67602 15.8171C-5.36854 25.0825 10.2752 24.3935 13.6806 23.2917C112.449 6.59998 113.787 7.23836 189.464 7.63041C222.929 7.62728 256.405 12.4575 308.04 19.2647C309.355 19.4727 310.504 17.6719 310.209 15.6941C315.276 16.5101 320.332 17.547 325.37 18.8036C327.99 19.6473 330.619 20.4491 333.223 21.4181C333.762 21.6027 334.32 21.4665 334.777 21.0387C335.234 20.6109 335.554 19.9254 335.669 19.129L335.668 19.1249Z" fill="#FF914D"/>
</svg>
