<svg width="336" height="32" viewBox="0 0 336 32" fill="none" xmlns="http://www.w3.org/2000/svg">
<path d="M335.633 28.3657C336.141 21.2218 329.153 22.07 326.876 20.1023C300.315 10.0028 251.776 5.69326 225.044 4.13267C203.445 3.03365 181.831 0.668436 160.258 0.718898C144.326 0.0507803 128.513 2.31477 112.594 2.08313C79.1014 3.15252 45.4392 4.19669 12.5744 14.1547C9.19059 15.7741 5.5303 16.1009 2.34446 18.7567C-5.56128 30.9782 10.0831 30.3043 13.4738 28.8893C112.054 8.18851 113.403 9.06012 189.142 10.7646C222.631 11.2831 256.207 18.2427 307.986 28.1205C309.306 28.4182 310.427 26.0364 310.101 23.3962C315.185 24.5627 320.261 26.0235 325.322 27.7767C327.957 28.9419 330.601 30.0515 333.222 31.3834C333.764 31.6379 334.32 31.4651 334.771 30.9021C335.221 30.3392 335.531 29.4307 335.633 28.3712L335.633 28.3657Z" fill="#FF914D"/>
</svg>
